<svg version="1.1" id="Layer_1" xmlns="http://www.w3.org/2000/svg" xmlns:xlink="http://www.w3.org/1999/xlink" x="0px" y="0px"
	 width="100%" viewBox="0 0 560 560" enable-background="new 0 0 560 560" xml:space="preserve">
<path fill="#D9D8D8" opacity="1.000000" stroke="none" 
	d="
M549.000000,561.000000 
	C548.555664,561.000000 548.111328,561.000000 547.334290,560.531372 
	C547.000916,543.410217 546.902344,526.756775 547.072815,510.106049 
	C547.112305,506.244568 546.033752,504.884247 542.001099,504.916840 
	C520.354309,505.091949 498.704712,505.083649 477.057648,504.923920 
	C473.128113,504.894928 471.871368,506.080475 471.915192,510.044312 
	C472.103088,527.027771 471.998169,544.014465 472.000000,561.000000 
	C471.250000,561.000000 470.500000,561.000000 469.375122,560.531372 
	C469.001007,543.410034 468.903290,526.756409 469.076050,510.105591 
	C469.116180,506.239716 468.031067,504.885803 464.002167,504.918091 
	C442.355164,505.091553 420.705383,505.083191 399.058197,504.921722 
	C395.124512,504.892395 393.874573,506.083740 393.918030,510.043823 
	C394.104431,527.027466 393.999054,544.014343 394.000000,561.000000 
	C393.555664,561.000000 393.111328,561.000000 392.333740,560.531372 
	C392.000977,543.410889 391.904022,526.758179 392.074890,510.108093 
	C392.114502,506.249573 391.039795,504.884186 387.004578,504.916931 
	C365.358704,505.092712 343.710022,505.084991 322.063904,504.925049 
	C318.131561,504.895966 316.880951,506.086090 316.924011,510.046417 
	C317.108704,527.029236 317.001099,544.015198 317.000000,561.000000 
	C316.555664,561.000000 316.111328,561.000000 315.333923,560.531372 
	C315.000946,543.460510 314.880066,526.856812 315.085785,510.257233 
	C315.137573,506.079010 313.777679,504.818787 309.679504,504.919617 
	C299.558228,505.168579 289.426880,505.006989 279.234344,504.676086 
	C279.205994,503.890930 279.242889,503.440063 279.730896,502.991821 
	C286.496826,502.996399 292.812439,503.060852 299.126221,502.980286 
	C304.085693,502.916992 311.051361,504.566803 313.464386,502.005798 
	C316.143738,499.162109 314.807220,492.408722 314.975037,487.349487 
	C315.387054,474.926239 315.658905,462.498383 316.221375,449.993561 
	C316.455658,449.914764 316.944489,449.841492 316.962219,450.324280 
	C316.986877,466.621735 317.053192,482.436829 316.951813,498.250854 
	C316.930969,501.497467 317.656342,503.081818 321.357666,503.060028 
	C343.497528,502.929626 365.638794,502.947815 387.778992,503.048370 
	C391.105103,503.063477 392.147949,501.781250 392.043274,498.615265 
	C391.845398,492.628510 391.910431,486.633087 391.910461,480.397614 
	C392.237335,479.755859 392.519989,479.357758 393.104431,479.256073 
	C393.603973,485.672729 394.041016,491.797943 393.912903,497.911377 
	C393.831421,501.799591 395.008545,503.112122 399.012756,503.080383 
	C420.644348,502.908783 442.278503,502.919464 463.910370,503.071472 
	C467.786774,503.098694 469.114014,501.998718 469.082947,497.989044 
	C468.912598,476.024658 468.922668,454.057648 469.076172,432.092987 
	C469.103333,428.206360 467.990051,426.895752 463.989502,426.927216 
	C442.357910,427.097290 420.723755,427.086456 399.091888,426.933075 
	C395.216095,426.905579 393.843933,427.998169 393.916870,432.013336 
	C394.143524,444.489777 394.052887,456.973358 393.946991,469.453003 
	C393.931061,471.324768 393.173828,473.190247 392.568970,474.894043 
	C392.209778,474.264069 392.041138,473.798706 391.905457,472.844727 
	C391.959351,458.760437 391.897614,445.163696 392.059082,431.569611 
	C392.099823,428.138794 390.990143,426.906158 387.493530,426.944122 
	C376.886353,427.059326 366.276062,426.883270 355.739319,426.603333 
	C355.811676,426.386017 356.043762,425.991058 356.507751,425.991699 
	C367.125916,425.991821 377.281860,425.883820 387.433289,426.050201 
	C390.892029,426.106873 392.140961,424.954834 392.061798,421.453430 
	C391.873810,413.134613 391.906189,404.806396 392.095398,396.487579 
	C392.129700,394.979980 393.333618,393.498932 393.996521,392.473938 
	C393.999451,402.961212 394.003387,412.980225 394.030029,423.392578 
	C395.366791,427.700592 398.655548,425.335022 401.469269,425.975464 
	C419.623627,425.975372 437.309357,425.970428 455.459229,425.974304 
	C458.565521,425.985199 461.217987,425.840424 463.847504,426.023895 
	C467.725647,426.294556 469.152008,424.633881 469.054871,420.796783 
	C468.871033,413.535400 469.002075,406.266052 469.003082,398.555847 
	C469.002594,395.741119 469.001312,393.370575 469.001343,390.531342 
	C469.002533,378.235077 468.821106,366.403290 469.096466,354.582092 
	C469.198578,350.199158 467.902588,348.860779 463.467560,348.908905 
	C442.979858,349.131165 422.488525,349.014160 401.636353,349.016479 
	C398.883759,349.025085 396.493286,349.035980 394.087006,348.702881 
	C394.117065,347.902710 394.162903,347.446533 394.656738,346.993927 
	C418.095428,346.998596 441.086456,346.941437 464.076538,347.062042 
	C467.640900,347.080719 469.071503,346.158722 469.091949,342.315155 
	C469.142090,332.893005 469.827545,323.475525 469.950043,314.052185 
	C470.115845,301.296478 469.881714,288.535431 470.066071,275.780243 
	C470.120178,272.038116 468.837463,270.906708 465.163544,270.935516 
	C444.340149,271.098694 423.515167,271.056732 402.450256,270.944153 
	C401.748199,270.231110 401.286652,269.658478 401.304260,269.063690 
	C422.780670,269.027740 443.778809,268.908691 464.774445,269.087891 
	C469.035431,269.124268 470.427490,267.665741 470.031860,263.610260 
	C469.549072,258.661041 469.011993,253.682175 469.063995,248.722076 
	C469.236938,232.227127 469.553192,215.731430 470.068207,199.243927 
	C470.200897,194.995468 468.682770,193.890305 464.621552,193.921188 
	C442.958801,194.085861 421.293213,194.102402 399.630951,193.908768 
	C395.332794,193.870361 393.850220,194.967148 393.899231,199.481262 
	C394.125366,220.309570 393.999176,241.141708 393.729736,261.834351 
	C392.675964,260.792603 391.891724,259.888916 391.352722,258.653412 
	C391.719482,257.840546 391.946686,257.359619 391.947418,256.878387 
	C391.977203,237.221329 391.927185,217.563843 392.051666,197.907471 
	C392.074890,194.245117 390.125336,193.953339 387.300079,193.969269 
	C375.472595,194.035889 363.644501,194.007996 351.816711,193.979553 
	C350.149078,193.975540 348.481873,193.776993 346.814484,193.668472 
	C346.833862,193.194916 346.853271,192.721359 346.872681,192.247787 
	C348.571930,192.167404 350.271057,192.020462 351.970459,192.017334 
	C363.798248,191.995605 375.627441,191.905548 387.453186,192.062897 
	C390.938812,192.109268 392.081787,190.915527 392.063385,187.442703 
	C391.946777,165.453506 391.940491,143.463028 392.064392,121.473923 
	C392.084564,117.895950 390.743164,116.929871 387.365295,116.946762 
	C365.709229,117.055016 344.051941,117.066017 322.396088,116.937729 
	C319.203918,116.918816 317.644562,118.127365 317.512512,121.088974 
	C317.246094,127.064468 317.161835,133.048080 316.622803,138.900253 
	C315.828796,135.108948 315.111877,131.450272 315.057037,127.781700 
	C314.895538,116.976334 314.998260,116.974800 304.186005,116.680038 
	C304.153778,115.892342 304.204926,115.438927 304.700195,114.986237 
	C306.139435,114.990547 307.134583,114.997505 308.129700,114.997162 
	C314.990845,114.994827 314.995758,114.994347 315.000366,108.321869 
	C315.006287,99.697319 314.908508,91.070732 315.094177,82.450165 
	C315.126556,80.947273 316.337219,79.469765 317.003784,78.450409 
	C317.004822,89.414467 317.062958,99.909164 316.969818,110.402504 
	C316.943756,113.339165 317.465179,115.064621 321.021759,115.047493 
	C343.342285,114.940033 365.663727,114.958298 387.984497,115.038643 
	C391.037018,115.049629 392.086700,113.886711 392.042572,110.908463 
	C391.922638,102.814491 392.003906,94.717560 392.004120,86.621796 
	C392.004486,72.629494 391.927673,58.636475 392.058899,44.645401 
	C392.090515,41.275494 391.124603,39.917885 387.538635,39.938290 
	C365.551453,40.063408 343.562866,40.056938 321.575562,39.942646 
	C318.117645,39.924671 316.882111,41.038521 316.944611,44.540321 
	C317.119873,54.365105 317.004272,64.195084 316.623718,73.896378 
	C315.830139,72.091766 315.084747,70.418915 315.058807,68.734962 
	C314.933167,60.584438 314.939362,52.430214 315.033783,44.278870 
	C315.066071,41.492710 314.404968,39.950790 311.177948,39.962463 
	C288.717407,40.043720 266.256378,40.030235 243.795685,39.973587 
	C241.019440,39.966587 239.966583,41.040512 239.973602,43.807877 
	C240.030472,66.268570 240.035477,88.729561 239.967514,111.190186 
	C239.959152,113.951599 240.892563,115.277489 243.793854,115.321457 
	C243.818024,116.109444 243.769760,116.561905 243.323822,117.022461 
	C241.954010,118.225243 240.302094,119.336411 240.143036,120.630997 
	C239.739792,123.913040 240.005173,127.277351 240.004501,130.608719 
	C240.003586,135.112152 240.004272,139.615585 240.004272,144.119019 
	C239.435684,144.139786 238.867081,144.160553 238.298492,144.181320 
	C238.198425,142.668213 238.020462,141.155563 238.012009,139.641953 
	C237.978516,133.645660 237.861954,127.644783 238.051117,121.654282 
	C238.157501,118.285591 237.133408,116.920403 233.540100,116.941055 
	C211.553757,117.067390 189.566025,117.060509 167.579544,116.947342 
	C164.132263,116.929596 162.922241,118.025436 162.941147,121.533546 
	C163.059723,143.519974 163.060532,165.507706 162.938110,187.494110 
	C162.918411,191.031311 164.179337,192.117249 167.602036,192.058304 
	C177.260178,191.891998 186.923874,191.929428 196.583359,192.049240 
	C198.858063,192.077454 201.124802,192.746277 203.429810,193.355194 
	C203.464401,193.590012 203.195526,193.981201 202.712555,193.986786 
	C190.737656,193.995163 179.243622,194.122528 167.754959,193.929901 
	C163.984879,193.866684 162.901337,195.211731 162.936813,198.856903 
	C163.110321,216.675781 163.062836,234.496811 163.014099,252.496002 
	C162.773575,252.896118 162.558929,253.033813 161.976013,252.796906 
	C161.441071,250.718582 161.035355,248.931976 161.029648,247.144089 
	C160.979309,231.331802 160.876709,215.517685 161.082535,199.707932 
	C161.136948,195.528809 160.222946,193.846237 155.604797,193.896255 
	C134.135681,194.128891 112.661697,194.104080 91.191795,193.911270 
	C86.897682,193.872726 85.896713,195.413925 85.926849,199.411438 
	C86.086235,220.548981 86.183487,241.691055 85.871841,262.825226 
	C85.794044,268.100525 87.554741,269.164062 92.426254,269.108826 
	C110.730011,268.901276 129.038696,269.127838 147.176178,269.450348 
	C146.344879,270.479126 145.682938,271.249298 144.700256,271.751984 
	C142.907227,271.323425 141.435257,271.025299 139.962646,271.022247 
	C123.819489,270.988800 107.673981,271.149536 91.534477,270.904602 
	C87.105247,270.837372 85.866600,272.193817 85.907990,276.568787 
	C86.112671,298.202087 86.117645,319.839569 85.905792,341.472748 
	C85.862396,345.905029 87.204536,347.138580 91.573822,347.093964 
	C112.041969,346.885071 132.513443,347.002197 153.013947,347.335449 
	C153.030670,348.112823 153.017166,348.557678 152.534653,349.004639 
	C131.928879,349.006378 111.791061,349.113312 91.656166,348.918976 
	C87.406662,348.877960 85.854797,349.901337 85.901047,354.449707 
	C86.124382,376.414886 86.148758,398.385376 85.885994,420.349701 
	C85.827705,425.222198 87.606178,426.216370 91.959732,426.061707 
	C106.396919,425.548859 120.843536,425.178802 135.288895,425.071045 
	C142.407425,425.017914 149.535049,425.595428 156.650742,426.018921 
	C159.854507,426.209625 161.123032,425.030182 161.048706,421.736755 
	C160.883545,414.418030 160.977020,407.092773 161.022568,399.770569 
	C161.030838,398.444183 161.313110,397.119507 161.468887,395.794037 
	C161.977951,395.828430 162.487015,395.862823 162.996078,395.897217 
	C162.996078,397.428864 162.995911,398.960480 162.996124,400.492126 
	C162.997009,407.148926 163.161072,413.811188 162.938385,420.460510 
	C162.802612,424.514160 164.189682,426.178680 168.385391,426.056183 
	C176.200577,425.828003 184.026993,425.983948 191.976959,426.188080 
	C192.105179,426.396118 192.285126,426.850555 191.791809,426.897400 
	C183.034210,426.975311 174.764236,426.864044 166.511917,427.193817 
	C165.300461,427.242188 163.235214,429.332764 163.164764,430.569580 
	C162.815765,436.696259 163.003738,442.853516 163.001053,449.457581 
	C163.339981,453.958984 163.680313,458.002838 163.907150,462.337921 
	C162.919250,463.524628 162.044846,464.420105 161.124985,464.829041 
	C161.051697,453.346222 160.940964,442.349121 161.047714,431.354126 
	C161.078812,428.152039 160.030502,426.942810 156.738495,426.957489 
	C134.578552,427.056244 112.417740,427.055847 90.257797,426.957062 
	C86.964958,426.942383 85.939796,428.157043 85.953011,431.356018 
	C86.045944,453.849243 86.033524,476.343140 85.965858,498.836548 
	C85.957130,501.738922 86.822044,503.050934 89.947769,503.039429 
	C112.274467,502.957275 134.601746,502.961456 156.928482,503.037476 
	C159.927063,503.047668 161.121811,501.994110 161.038788,498.958649 
	C160.893082,493.630920 161.005127,488.296143 161.306854,482.876984 
	C162.009216,482.705200 162.413940,482.620758 162.867554,483.014282 
	C162.945709,485.661499 162.974991,487.830750 163.002533,490.464966 
	C162.999756,492.927673 163.215393,494.954224 162.954697,496.917511 
	C162.318283,501.710358 164.156311,503.169800 169.020416,503.110596 
	C189.993896,502.855347 210.972946,502.912445 231.948227,503.075958 
	C235.889282,503.106689 237.057114,501.889130 237.096710,497.951111 
	C237.248657,482.835632 237.763916,467.723816 238.358978,452.622559 
	C238.574310,452.634521 238.974167,452.796295 238.983109,453.284729 
	C238.996048,468.562836 239.091522,483.353455 238.938644,498.141479 
	C238.901199,501.764374 239.956604,503.178162 243.736252,503.068878 
	C251.539749,502.843231 259.354675,503.013092 267.199371,503.346802 
	C267.208893,504.109802 267.183990,504.546295 266.680450,504.988678 
	C258.905487,504.995911 251.601471,505.198303 244.315781,504.920105 
	C240.206924,504.763214 238.872375,506.097809 238.921387,510.258118 
	C239.120560,527.170044 239.001633,544.085693 239.000000,561.000000 
	C238.555664,561.000000 238.111328,561.000000 237.335358,560.531372 
	C237.003754,543.410095 236.905792,526.756470 237.077042,510.105713 
	C237.116776,506.241180 236.031082,504.884949 232.001770,504.917908 
	C210.687897,505.092407 189.371185,505.083038 168.057098,504.920319 
	C164.123505,504.890320 162.874374,506.083496 162.917938,510.043976 
	C163.104813,527.027588 162.999084,544.014343 163.000000,561.000000 
	C162.555664,561.000000 162.111328,561.000000 161.334503,560.531372 
	C161.001678,543.410278 160.903763,526.756958 161.073944,510.106262 
	C161.113403,506.245819 160.034592,504.883942 156.001450,504.916504 
	C134.354767,505.091156 112.705299,505.082489 91.058403,504.921692 
	C87.124825,504.892456 85.876709,506.084198 85.920166,510.044586 
	C86.106499,527.027954 85.999855,544.014587 86.000000,561.000000 
	C85.555664,561.000000 85.111328,561.000000 84.332848,560.531372 
	C83.997955,543.410950 83.900017,526.758240 84.069153,510.108215 
	C84.108330,506.251404 83.034744,504.884827 78.999130,504.916779 
	C57.020210,505.090515 35.038586,505.082489 13.059456,504.922119 
	C9.121984,504.893402 7.880528,506.091309 7.923435,510.046539 
	C8.107660,527.029297 8.000798,544.015259 8.000000,561.000000 
	C7.555664,561.000000 7.111328,561.000000 6.334360,560.531372 
	C6.001671,543.397644 5.890515,526.731384 6.083398,510.068573 
	C6.128908,506.137085 4.965026,504.421326 1.000000,505.000000 
	C1.000000,504.555664 1.000000,504.111328 1.426864,503.332825 
	C5.740650,503.505371 6.049406,501.163879 6.039913,498.124359 
	C5.971091,476.089081 5.913575,454.052765 6.086123,432.018616 
	C6.117068,428.067047 4.892577,426.454346 1.000000,427.000000 
	C1.000000,427.000000 1.000000,426.500000 1.409393,426.243591 
	C3.206026,424.760437 5.752949,423.579620 5.803712,422.299835 
	C6.407439,407.079285 6.793022,391.845032 6.903411,376.612000 
	C6.957934,369.088104 6.070900,361.558014 6.106758,354.033081 
	C6.125542,350.091125 4.912645,348.445770 1.000000,349.000000 
	C1.000000,348.555664 1.000000,348.111328 1.426664,347.333374 
	C4.728061,347.294281 6.011469,346.246735 6.061354,343.111023 
	C6.233941,332.262329 6.824760,321.419312 6.930430,310.570953 
	C6.989285,304.528717 6.298058,298.481903 6.200373,292.433044 
	C6.182000,291.295441 7.371372,290.138336 8.002607,289.459900 
	C8.002288,307.240021 7.995732,324.550507 8.011303,341.860962 
	C8.013505,344.308990 7.456497,347.026154 11.467128,347.015808 
	C34.436611,346.956512 57.406788,347.043335 80.374695,346.844574 
	C81.586304,346.834076 83.816994,344.682159 83.827583,343.511353 
	C84.035309,320.543579 84.036697,297.572968 83.836571,274.605072 
	C83.826057,273.398376 81.665703,271.177124 80.490601,271.166595 
	C57.522808,270.960480 34.552231,270.960022 11.584369,271.162048 
	C10.384870,271.172577 8.317767,273.260010 8.178852,274.545258 
	C7.734245,278.658752 8.007397,282.849854 7.744780,286.715363 
	C6.991868,282.900513 6.038009,279.369934 6.124874,275.865112 
	C6.223816,271.873016 4.723965,270.504761 1.000000,271.000000 
	C1.000000,270.555664 1.000000,270.111328 1.433417,269.333374 
	C5.645860,269.500000 7.179502,268.157867 7.081695,264.055664 
	C6.789968,251.819962 6.893764,239.574860 6.840235,227.333435 
	C6.828054,224.547852 6.861309,221.760559 6.774657,218.977127 
	C6.575736,212.587372 5.480745,206.085022 6.336192,199.845932 
	C7.063625,194.540497 5.370951,193.596024 1.000000,194.000000 
	C1.000000,193.555664 1.000000,193.111328 1.437612,192.334595 
	C3.917442,191.995300 5.959660,191.988419 8.470284,191.988770 
	C32.249191,191.998184 55.560116,191.931030 78.869781,192.071686 
	C82.691162,192.094727 84.117508,191.095566 84.083466,187.025894 
	C83.902390,165.381927 83.916046,143.735107 84.069046,122.090729 
	C84.096519,118.203453 82.982681,116.889374 78.979744,116.920258 
	C57.002579,117.089844 35.022789,117.087357 13.045533,116.924362 
	C9.084208,116.894989 7.889704,118.135818 7.925999,122.065269 
	C8.098233,140.712082 8.002918,159.361359 7.736550,177.690353 
	C7.159544,160.202362 6.611584,143.033020 6.667036,125.865616 
	C6.686419,119.864769 5.736843,117.260284 1.000000,117.000000 
	C1.000000,116.555664 1.000000,116.111328 1.426808,115.332001 
	C5.765944,115.505219 6.052039,113.135208 6.040594,110.096375 
	C5.967966,90.812820 5.996388,71.528847 6.015403,52.245037 
	C6.017199,50.423576 6.002866,48.571354 6.307271,46.786495 
	C7.380705,40.492493 7.208503,40.213764 1.000000,40.000000 
	C1.000000,39.250000 1.000000,38.500000 1.426848,37.374191 
	C5.177537,37.405956 6.088713,35.770870 6.050424,32.656490 
	C5.920710,22.105715 6.000354,11.552365 6.000000,1.000000 
	C6.444336,1.000000 6.888672,1.000000 7.666479,1.468657 
	C8.001321,12.092239 8.107201,22.248825 7.945770,32.401161 
	C7.891352,35.823483 8.973308,37.080612 12.507159,37.061432 
	C34.814030,36.940338 57.122158,36.944069 79.429115,37.056774 
	C82.883820,37.074226 84.115219,35.962418 84.058617,32.462608 
	C83.889015,21.977499 83.999084,11.487866 84.000000,1.000000 
	C84.444336,1.000000 84.888672,1.000000 85.666519,1.468657 
	C86.000694,12.092254 86.105644,22.248854 85.943878,32.401203 
	C85.889305,35.826332 86.979065,37.076763 90.509636,37.057426 
	C112.483597,36.937038 134.458847,36.942421 156.432877,37.058041 
	C159.890030,37.076233 161.117569,35.960358 161.060898,32.462681 
	C160.891022,21.977545 160.999908,11.487891 161.000000,1.000000 
	C161.444336,1.000000 161.888672,1.000000 162.667038,1.468657 
	C163.000793,12.092221 163.104446,22.248787 162.942337,32.401108 
	C162.887665,35.824322 163.974838,37.079044 167.506958,37.059505 
	C189.480850,36.937946 211.456024,36.942135 233.429993,37.056194 
	C236.884781,37.074123 238.115692,35.962997 238.058899,32.462574 
	C237.888824,21.977491 237.999130,11.487858 238.000000,1.000000 
	C238.444336,1.000000 238.888672,1.000000 239.666199,1.468657 
	C240.000992,12.235154 240.061310,22.533535 239.966400,32.830486 
	C239.939880,35.707767 240.791962,37.050152 243.922302,37.038715 
	C266.344696,36.956791 288.767700,36.956532 311.190125,37.036674 
	C314.415558,37.048195 315.063873,35.496353 315.033813,32.720490 
	C314.942169,24.250685 314.937286,15.778399 315.048126,7.309034 
	C315.075684,5.202231 315.667511,3.102812 316.000000,0.999999 
	C316.000000,1.000000 316.500000,1.000000 316.751343,1.468656 
	C317.003052,11.769655 317.210602,21.608349 316.909607,31.431459 
	C316.774689,35.834885 318.129730,37.146984 322.551208,37.096794 
	C342.046753,36.875496 361.546265,37.001125 381.044342,37.001514 
	C393.483032,37.001762 394.990173,35.170147 392.727966,22.789141 
	C392.668396,22.463081 392.455536,22.146719 392.463135,21.829407 
	C392.629364,14.885966 392.816681,7.943031 393.000000,1.000000 
	C393.000000,1.000000 393.500000,1.000000 393.750427,1.468657 
	C394.001678,12.092159 394.106659,22.248663 393.945129,32.400925 
	C393.890686,35.822697 394.972687,37.080273 398.506897,37.061092 
	C420.813599,36.940022 443.121552,36.944107 465.428345,37.056824 
	C468.882782,37.074276 470.114166,35.962597 470.057556,32.462379 
	C469.888000,21.977352 469.998688,11.487792 470.000000,1.000000 
	C470.444336,1.000000 470.888672,1.000000 471.666443,1.468657 
	C472.000366,12.092122 472.105103,22.248590 471.943268,32.400810 
	C471.888702,35.824104 472.974457,37.078613 476.506866,37.059067 
	C498.480530,36.937462 520.455505,36.941723 542.429260,37.055817 
	C545.883911,37.073750 547.115417,35.962234 547.058777,32.462280 
	C546.889099,21.977282 546.999146,11.487758 547.000000,1.000000 
	C547.444336,1.000000 547.888672,1.000000 548.666504,1.468657 
	C549.000000,9.595551 549.000000,17.253786 549.000000,24.912022 
	C549.000000,36.995972 549.000000,36.995972 561.000000,37.000000 
	C561.000000,37.750000 561.000000,38.500000 560.537598,39.625351 
	C558.743896,40.000805 557.412659,40.000156 556.081421,40.001133 
	C549.007080,40.006317 549.003662,40.006458 549.002441,47.011166 
	C548.999268,65.648590 549.000732,84.286011 548.997620,102.923431 
	C548.995544,114.994835 548.993408,114.994835 561.000000,115.000000 
	C561.000000,115.444336 561.000000,115.888672 560.537598,116.667847 
	C558.743958,117.003334 557.412659,117.003510 556.081421,117.004723 
	C549.009094,117.011208 549.003479,117.011284 549.001953,124.013840 
	C548.997986,142.651337 548.999634,161.288849 548.998413,179.926346 
	C548.997681,192.009338 548.997253,192.009338 561.000000,192.000000 
	C561.000000,192.444336 561.000000,192.888672 560.537598,193.666046 
	C558.743835,193.999084 557.412476,193.998062 556.081177,193.999191 
	C549.008179,194.005264 549.004578,194.005463 549.003174,201.012238 
	C548.999512,219.650833 548.998840,238.289444 548.997742,256.928040 
	C548.997009,269.004669 548.997559,269.004669 561.000000,269.000000 
	C561.000000,269.444336 561.000000,269.888672 560.537598,270.666748 
	C558.743774,271.000732 557.412476,271.000336 556.081116,271.001312 
	C549.004089,271.006439 548.999329,271.006561 548.998413,278.009430 
	C548.996094,296.980927 548.996277,315.952393 548.999268,334.923889 
	C549.001160,346.998718 549.004272,346.998718 561.000000,347.000000 
	C561.000000,347.444336 561.000000,347.888672 560.537598,348.668579 
	C558.744080,349.005005 557.412903,349.005524 556.081787,349.006866 
	C549.006531,349.014069 549.002014,349.014130 549.000793,356.013245 
	C548.997620,375.314697 548.997070,394.616150 548.998413,413.917603 
	C548.999207,425.960480 549.001587,425.960480 561.000000,426.000000 
	C561.000000,426.000000 561.000000,426.500000 560.537598,426.751770 
	C558.743896,427.004425 557.412659,427.005005 556.081360,427.006165 
	C549.006958,427.012329 549.001953,427.012360 549.000671,434.011871 
	C548.997131,452.982544 548.998108,471.953186 548.997620,490.923859 
	C548.997253,502.987488 548.997559,502.987488 561.000000,503.000000 
	C561.000000,503.444336 561.000000,503.888672 560.537598,504.666504 
	C558.575928,505.000397 557.076660,504.999146 555.577454,505.001556 
	C549.013611,505.012085 549.003845,505.012451 549.001587,511.525696 
	C548.995911,528.017151 548.999878,544.508545 549.000000,561.000000 
M18.525604,425.989990 
	C27.649311,425.666077 36.773643,425.068024 45.896564,425.088898 
	C56.852711,425.113922 67.814430,425.526794 78.759705,426.059998 
	C83.014839,426.267334 84.103188,424.672333 84.072937,420.618652 
	C83.908958,398.639282 83.897446,376.657257 84.080299,354.678192 
	C84.115494,350.447906 83.134163,348.855682 78.563057,348.903595 
	C56.917904,349.130585 35.268089,349.109924 13.622309,348.914307 
	C9.314223,348.875366 7.855893,349.992828 7.904777,354.491089 
	C8.129139,375.137054 7.951154,395.787048 8.021300,416.435211 
	C8.058541,427.397797 6.586313,425.841309 18.525604,425.989990 
M8.001946,440.509888 
	C8.001489,459.480072 8.124206,478.451630 7.907845,497.419342 
	C7.858144,501.776489 9.075106,503.140289 13.519410,503.096405 
	C35.149948,502.882812 56.784782,502.889832 78.415543,503.091949 
	C82.773811,503.132690 84.134720,501.919037 84.090897,497.478027 
	C83.877495,475.847473 83.882843,454.212646 84.085960,432.581909 
	C84.126907,428.220947 82.916039,426.857178 78.474297,426.909210 
	C59.173965,427.135254 39.869476,427.005371 20.566496,427.006378 
	C8.002678,427.007050 8.002678,427.008209 8.001946,440.509888 
M517.500000,349.003662 
	C504.180908,349.004242 490.858459,349.175018 477.544678,348.909332 
	C473.128357,348.821198 471.861206,350.170685 471.903595,354.564240 
	C472.110809,376.039246 472.122864,397.518738 471.890808,418.993256 
	C471.843597,423.360565 473.084259,425.520508 477.475861,425.648346 
	C478.632721,425.682007 479.785034,425.970306 480.939606,425.971527 
	C501.417664,425.993011 521.896057,425.932343 542.373535,426.044403 
	C545.760376,426.062927 547.079102,425.077637 547.059814,421.511688 
	C546.937012,398.869904 546.943115,376.226868 547.054321,353.584961 
	C547.071228,350.143616 545.990356,348.859741 542.472839,348.945374 
	C534.486145,349.139709 526.491455,349.004761 517.500000,349.003662 
M524.500000,271.000488 
	C508.524323,271.001129 492.548462,271.042816 476.573181,270.965332 
	C473.625488,270.951019 471.929901,271.489777 471.946777,275.028046 
	C472.054779,297.659729 472.036255,320.292297 471.962677,342.924255 
	C471.952972,345.908661 472.988953,347.048523 476.026428,347.037933 
	C498.325531,346.960114 520.625122,346.963074 542.924255,347.038147 
	C545.909119,347.048187 547.047729,346.009491 547.037354,342.972931 
	C546.960022,320.341003 546.962646,297.708557 547.037476,275.076599 
	C547.047363,272.091095 546.013489,270.887268 542.972229,270.963013 
	C537.151367,271.108063 531.324341,271.002441 524.500000,271.000488 
M30.500046,39.999046 
	C24.675705,39.998955 18.840559,40.214863 13.030752,39.924229 
	C9.034321,39.724312 7.898373,41.168362 7.926736,45.073280 
	C8.083856,66.705353 8.090365,88.339836 7.923030,109.971748 
	C7.892248,113.951065 9.168668,115.102821 13.074863,115.075203 
	C35.039795,114.919846 57.007042,114.913956 78.971817,115.079865 
	C82.950027,115.109917 84.103821,113.834518 84.075302,109.927368 
	C83.917419,88.295303 83.910248,66.660820 84.076767,45.028908 
	C84.107391,41.050900 82.836433,39.878231 78.925804,39.923691 
	C63.119057,40.107449 47.308918,39.999500 30.500046,39.999046 
M471.995117,491.477722 
	C471.995148,493.141907 471.992615,494.806061 471.995575,496.470245 
	C472.007141,502.986481 472.007812,502.995667 478.564362,502.997070 
	C499.699127,503.001648 520.834656,502.909637 541.968079,503.078125 
	C545.940613,503.109772 547.104736,501.843567 547.076782,497.930511 
	C546.919861,475.964783 546.913147,453.996704 547.079468,432.031128 
	C547.109558,428.050323 545.834167,426.901672 541.928223,426.930420 
	C520.461792,427.088501 498.992401,427.122864 477.526917,426.911072 
	C473.100891,426.867371 471.852448,428.198456 471.901581,432.574158 
	C472.118286,451.875946 471.995148,471.181519 471.995117,491.477722 
M447.499969,115.000916 
	C453.324158,115.000237 459.159058,114.783867 464.968781,115.073341 
	C468.963287,115.272362 470.103058,113.830521 470.074554,109.924744 
	C469.916809,88.293121 469.909332,66.659081 470.075958,45.027607 
	C470.106628,41.046841 468.827148,39.897541 464.922485,39.925079 
	C442.958008,40.079987 420.991150,40.086227 399.026855,39.919239 
	C395.043884,39.888954 393.898560,41.171062 393.926819,45.074146 
	C394.083435,66.705780 394.089783,88.339813 393.922729,109.971291 
	C393.891968,113.949638 395.166138,115.120789 399.075195,115.075478 
	C414.881622,114.892250 430.691437,115.000351 447.499969,115.000916 
M83.996948,233.500000 
	C83.995941,221.851440 83.896057,210.201523 84.054451,198.555130 
	C84.101700,195.081055 82.925026,193.923950 79.448181,193.941788 
	C57.150032,194.056305 34.850708,194.055634 12.552561,193.940048 
	C9.079177,193.922043 7.926136,195.073944 7.944558,198.548828 
	C8.061005,220.514130 8.060688,242.480667 7.944612,264.445984 
	C7.926272,267.916260 9.070304,269.075470 12.548611,269.057465 
	C34.846756,268.942017 57.146080,268.942963 79.444229,269.058075 
	C82.913696,269.075958 84.117195,267.935730 84.056976,264.452484 
	C83.884407,254.470947 83.996452,244.484512 83.996948,233.500000 
M409.503906,192.004272 
	C427.154083,192.003860 444.804260,192.006287 462.454437,192.001541 
	C468.935699,191.999802 469.873413,191.441956 469.920563,185.128555 
	C470.080902,163.649857 470.041565,142.168732 469.841461,120.690704 
	C469.829956,119.456017 467.721588,117.183464 466.572754,117.172920 
	C443.596222,116.962082 420.616791,116.960342 397.640076,117.158821 
	C396.422424,117.169342 394.180481,119.310081 394.169678,120.475388 
	C393.959930,143.118896 393.958099,165.765320 394.159180,188.408951 
	C394.169891,189.612793 396.233612,191.653534 397.538055,191.826965 
	C401.138214,192.305603 404.842651,191.999832 409.503906,192.004272 
M547.000427,108.377884 
	C546.999390,87.241028 546.939087,66.103844 547.055786,44.967640 
	C547.075134,41.463634 546.269165,39.900578 542.364197,39.927734 
	C520.396179,40.080513 498.426239,40.065346 476.457947,39.940155 
	C472.869263,39.919704 471.932434,41.286041 471.948456,44.646362 
	C472.052551,66.448463 472.097839,88.252129 471.912994,110.053169 
	C471.878113,114.163429 473.377869,115.090195 477.155121,115.065903 
	C498.623962,114.927826 520.095520,114.872643 541.562866,115.099312 
	C546.121399,115.147446 547.632141,113.569481 547.000427,108.377884 
M237.999847,96.499275 
	C237.999512,79.359283 238.001480,62.219288 237.996277,45.079292 
	C237.995514,42.587181 238.447250,39.965359 234.475845,39.977722 
	C211.844620,40.048153 189.212601,39.957432 166.582977,40.160110 
	C165.382370,40.170864 163.173767,42.342785 163.162994,43.524368 
	C162.956848,66.153938 162.956436,88.786346 163.159210,111.415962 
	C163.169968,112.616707 165.342010,114.825554 166.523636,114.836296 
	C189.153198,115.041847 211.785202,114.960762 234.416473,115.020912 
	C237.386642,115.028809 238.076370,113.560982 238.022079,110.977051 
	C237.927704,106.486046 237.998245,101.991577 237.999847,96.499275 
M132.500000,192.003601 
	C140.321136,192.002792 148.148605,191.814941 155.960770,192.079239 
	C159.932983,192.213638 161.106750,190.864517 161.077682,186.939468 
	C160.917480,165.307602 160.914200,143.673279 161.078369,122.041489 
	C161.108414,118.081711 159.865021,116.896797 155.939056,116.926094 
	C134.307205,117.087517 112.672859,117.092575 91.041077,116.928284 
	C87.078308,116.898186 85.899208,118.142509 85.927940,122.066376 
	C86.086319,143.698257 86.088181,165.332596 85.921303,186.964355 
	C85.890717,190.929352 87.139381,192.137100 91.063995,192.078598 
	C104.540039,191.877731 118.020950,192.002823 132.500000,192.003601 
M93.591515,114.998741 
	C114.228340,114.998688 134.865707,114.920929 155.501495,115.067535 
	C159.387375,115.095139 161.134827,114.312073 161.093246,109.896904 
	C160.889465,88.263420 160.908371,66.626221 161.083755,44.992233 
	C161.116470,40.955406 159.743118,39.900650 155.892227,39.927559 
	C134.424286,40.077583 112.953522,40.122986 91.486809,39.903080 
	C86.992271,39.857040 85.871620,41.308689 85.912231,45.616230 
	C86.109909,66.584061 85.997086,87.554779 86.001083,108.524475 
	C86.002312,114.953613 86.012367,114.953613 93.591515,114.998741 
M547.000000,218.500000 
	C546.998840,212.009979 546.790344,205.510895 547.073059,199.033264 
	C547.247131,195.043823 545.836487,193.895874 541.926697,193.924301 
	C520.294373,194.081619 498.659576,194.087799 477.027344,193.920853 
	C473.048981,193.890152 471.895660,195.165115 471.924042,199.072891 
	C472.080933,220.705261 472.086945,242.340042 471.918549,263.972260 
	C471.887604,267.952911 473.164001,269.103607 477.069977,269.075317 
	C498.702362,268.918396 520.337097,268.912323 541.969360,269.078522 
	C545.941467,269.109039 547.128601,267.847443 547.077942,263.930878 
	C546.886414,249.122742 547.000366,234.310623 547.000000,218.500000 
M472.000000,163.500000 
	C471.999786,171.321289 472.187134,179.148941 471.921143,186.961197 
	C471.785828,190.936676 473.141479,192.105453 477.062653,192.076736 
	C498.694702,191.918213 520.329163,191.915329 541.961121,192.080215 
	C545.921814,192.110413 547.104980,190.864822 547.075806,186.939651 
	C546.915405,165.307648 546.912048,143.673157 547.076355,122.041206 
	C547.106384,118.080734 545.862122,116.897339 541.937012,116.926262 
	C520.304993,117.085632 498.670471,117.088203 477.038544,116.922859 
	C473.076904,116.892586 471.863129,118.136124 471.922058,122.063721 
	C472.124268,135.539841 471.999908,149.020844 472.000000,163.500000 
z"/>
<path fill="#E3E3E3" opacity="1.000000" stroke="none" 
	d="
M8.468657,561.000000 
	C8.000798,544.015259 8.107660,527.029297 7.923435,510.046539 
	C7.880528,506.091309 9.121984,504.893402 13.059456,504.922119 
	C35.038586,505.082489 57.020210,505.090515 78.999130,504.916779 
	C83.034744,504.884827 84.108330,506.251404 84.069153,510.108215 
	C83.900017,526.758240 83.997955,543.410950 83.999352,560.531372 
	C58.979103,561.000000 33.958210,561.000000 8.468657,561.000000 
z"/>
<path fill="#E3E3E3" opacity="1.000000" stroke="none" 
	d="
M86.468658,561.000000 
	C85.999855,544.014587 86.106499,527.027954 85.920166,510.044586 
	C85.876709,506.084198 87.124825,504.892456 91.058403,504.921692 
	C112.705299,505.082489 134.354767,505.091156 156.001450,504.916504 
	C160.034592,504.883942 161.113403,506.245819 161.073944,510.106262 
	C160.903763,526.756958 161.001678,543.410278 161.001007,560.531372 
	C136.312439,561.000000 111.624878,561.000000 86.468658,561.000000 
z"/>
<path fill="#E3E3E3" opacity="1.000000" stroke="none" 
	d="
M317.468658,561.000000 
	C317.001099,544.015198 317.108704,527.029236 316.924011,510.046417 
	C316.880951,506.086090 318.131561,504.895966 322.063904,504.925049 
	C343.710022,505.084991 365.358704,505.092712 387.004578,504.916931 
	C391.039795,504.884186 392.114502,506.249573 392.074890,510.108093 
	C391.904022,526.758179 392.000977,543.410889 392.000244,560.531372 
	C367.312439,561.000000 342.624878,561.000000 317.468658,561.000000 
z"/>
<path fill="#E3E3E3" opacity="1.000000" stroke="none" 
	d="
M394.468658,561.000000 
	C393.999054,544.014343 394.104431,527.027466 393.918030,510.043823 
	C393.874573,506.083740 395.124512,504.892395 399.058197,504.921722 
	C420.705383,505.083191 442.355164,505.091553 464.002167,504.918091 
	C468.031067,504.885803 469.116180,506.239716 469.076050,510.105591 
	C468.903290,526.756409 469.001007,543.410034 469.000122,560.531372 
	C444.312439,561.000000 419.624878,561.000000 394.468658,561.000000 
z"/>
<path fill="#E3E3E3" opacity="1.000000" stroke="none" 
	d="
M472.468658,561.000000 
	C471.998169,544.014465 472.103088,527.027771 471.915192,510.044312 
	C471.871368,506.080475 473.128113,504.894928 477.057648,504.923920 
	C498.704712,505.083649 520.354309,505.091949 542.001099,504.916840 
	C546.033752,504.884247 547.112305,506.244568 547.072815,510.106049 
	C546.902344,526.756775 547.000916,543.410217 547.000793,560.531372 
	C522.312439,561.000000 497.624878,561.000000 472.468658,561.000000 
z"/>
<path fill="#E3E3E3" opacity="1.000000" stroke="none" 
	d="
M163.468658,561.000000 
	C162.999084,544.014343 163.104813,527.027588 162.917938,510.043976 
	C162.874374,506.083496 164.123505,504.890320 168.057098,504.920319 
	C189.371185,505.083038 210.687897,505.092407 232.001770,504.917908 
	C236.031082,504.884949 237.116776,506.241180 237.077042,510.105713 
	C236.905792,526.756470 237.003754,543.410095 237.001862,560.531372 
	C212.645767,561.000000 188.291550,561.000000 163.468658,561.000000 
z"/>
<path fill="#E3E3E3" opacity="1.000000" stroke="none" 
	d="
M279.299561,505.010406 
	C289.426880,505.006989 299.558228,505.168579 309.679504,504.919617 
	C313.777679,504.818787 315.137573,506.079010 315.085785,510.257233 
	C314.880066,526.856812 315.000946,543.460510 315.000427,560.531372 
	C289.979095,561.000000 264.958221,561.000000 239.468658,561.000000 
	C239.001633,544.085693 239.120560,527.170044 238.921387,510.258118 
	C238.872375,506.097809 240.206924,504.763214 244.315781,504.920105 
	C251.601471,505.198303 258.905487,504.995911 266.725830,505.436462 
	C267.339966,508.509491 267.381989,511.143402 267.531891,513.771118 
	C267.744568,517.498413 269.179962,520.278137 273.455353,520.078064 
	C277.595612,519.884338 279.029572,517.231445 279.022949,513.393433 
	C279.018127,510.599274 279.200623,507.804779 279.299561,505.010406 
z"/>
<path fill="#E2E2E2" opacity="1.000000" stroke="none" 
	d="
M83.531342,1.000000 
	C83.999084,11.487866 83.889015,21.977499 84.058617,32.462608 
	C84.115219,35.962418 82.883820,37.074226 79.429115,37.056774 
	C57.122158,36.944069 34.814030,36.940338 12.507159,37.061432 
	C8.973308,37.080612 7.891352,35.823483 7.945770,32.401161 
	C8.107201,22.248825 8.001321,12.092239 7.999975,1.468657 
	C33.020893,1.000000 58.041790,1.000000 83.531342,1.000000 
z"/>
<path fill="#E2E2E2" opacity="1.000000" stroke="none" 
	d="
M469.531342,1.000000 
	C469.998688,11.487792 469.888000,21.977352 470.057556,32.462379 
	C470.114166,35.962597 468.882782,37.074276 465.428345,37.056824 
	C443.121552,36.944107 420.813599,36.940022 398.506897,37.061092 
	C394.972687,37.080273 393.890686,35.822697 393.945129,32.400925 
	C394.106659,22.248663 394.001678,12.092159 394.000427,1.468657 
	C419.020905,1.000000 444.041779,1.000000 469.531342,1.000000 
z"/>
<path fill="#E2E2E2" opacity="1.000000" stroke="none" 
	d="
M392.531342,1.000000 
	C392.816681,7.943031 392.629364,14.885966 392.463135,21.829407 
	C392.455536,22.146719 392.668396,22.463081 392.727966,22.789141 
	C394.990173,35.170147 393.483032,37.001762 381.044342,37.001514 
	C361.546265,37.001125 342.046753,36.875496 322.551208,37.096794 
	C318.129730,37.146984 316.774689,35.834885 316.909607,31.431459 
	C317.210602,21.608349 317.003052,11.769655 317.001343,1.468656 
	C342.020905,1.000000 367.041779,1.000000 392.531342,1.000000 
z"/>
<path fill="#E2E2E2" opacity="1.000000" stroke="none" 
	d="
M315.531342,0.999999 
	C315.667511,3.102812 315.075684,5.202231 315.048126,7.309034 
	C314.937286,15.778399 314.942169,24.250685 315.033813,32.720490 
	C315.063873,35.496353 314.415558,37.048195 311.190125,37.036674 
	C288.767700,36.956532 266.344696,36.956791 243.922302,37.038715 
	C240.791962,37.050152 239.939880,35.707767 239.966400,32.830486 
	C240.061310,22.533535 240.000992,12.235154 239.999695,1.468657 
	C265.020905,1.000000 290.041779,1.000000 315.531342,0.999999 
z"/>
<path fill="#E2E2E2" opacity="1.000000" stroke="none" 
	d="
M160.531342,1.000000 
	C160.999908,11.487891 160.891022,21.977545 161.060898,32.462681 
	C161.117569,35.960358 159.890030,37.076233 156.432877,37.058041 
	C134.458847,36.942421 112.483597,36.937038 90.509636,37.057426 
	C86.979065,37.076763 85.889305,35.826332 85.943878,32.401203 
	C86.105644,22.248854 86.000694,12.092254 86.000015,1.468657 
	C110.687561,1.000000 135.375122,1.000000 160.531342,1.000000 
z"/>
<path fill="#E2E2E2" opacity="1.000000" stroke="none" 
	d="
M237.531342,1.000000 
	C237.999130,11.487858 237.888824,21.977491 238.058899,32.462574 
	C238.115692,35.962997 236.884781,37.074123 233.429993,37.056194 
	C211.456024,36.942135 189.480850,36.937946 167.506958,37.059505 
	C163.974838,37.079044 162.887665,35.824322 162.942337,32.401108 
	C163.104446,22.248787 163.000793,12.092221 163.000534,1.468657 
	C187.687561,1.000000 212.375122,1.000000 237.531342,1.000000 
z"/>
<path fill="#E2E2E2" opacity="1.000000" stroke="none" 
	d="
M546.531372,1.000000 
	C546.999146,11.487758 546.889099,21.977282 547.058777,32.462280 
	C547.115417,35.962234 545.883911,37.073750 542.429260,37.055817 
	C520.455505,36.941723 498.480530,36.937462 476.506866,37.059067 
	C472.974457,37.078613 471.888702,35.824104 471.943268,32.400810 
	C472.105103,22.248590 472.000366,12.092122 471.999939,1.468657 
	C496.687561,1.000000 521.375122,1.000000 546.531372,1.000000 
z"/>
<path fill="#E3E2E2" opacity="1.000000" stroke="none" 
	d="
M561.000000,425.531342 
	C549.001587,425.960480 548.999207,425.960480 548.998413,413.917603 
	C548.997070,394.616150 548.997620,375.314697 549.000793,356.013245 
	C549.002014,349.014130 549.006531,349.014069 556.081787,349.006866 
	C557.412903,349.005524 558.744080,349.005005 560.537598,349.002075 
	C561.000000,374.354218 561.000000,399.708466 561.000000,425.531342 
z"/>
<path fill="#E3E3E3" opacity="1.000000" stroke="none" 
	d="
M561.000000,346.531342 
	C549.004272,346.998718 549.001160,346.998718 548.999268,334.923889 
	C548.996277,315.952393 548.996094,296.980927 548.998413,278.009430 
	C548.999329,271.006561 549.004089,271.006439 556.081116,271.001312 
	C557.412476,271.000336 558.743774,271.000732 560.537598,271.000244 
	C561.000000,296.020905 561.000000,321.041779 561.000000,346.531342 
z"/>
<path fill="#E3E3E3" opacity="1.000000" stroke="none" 
	d="
M561.000000,502.531342 
	C548.997559,502.987488 548.997253,502.987488 548.997620,490.923859 
	C548.998108,471.953186 548.997131,452.982544 549.000671,434.011871 
	C549.001953,427.012360 549.006958,427.012329 556.081360,427.006165 
	C557.412659,427.005005 558.743896,427.004425 560.537598,427.001770 
	C561.000000,452.020905 561.000000,477.041779 561.000000,502.531342 
z"/>
<path fill="#E2E2E2" opacity="1.000000" stroke="none" 
	d="
M561.000000,114.531342 
	C548.993408,114.994835 548.995544,114.994835 548.997620,102.923431 
	C549.000732,84.286011 548.999268,65.648590 549.002441,47.011166 
	C549.003662,40.006458 549.007080,40.006317 556.081421,40.001133 
	C557.412659,40.000156 558.743896,40.000805 560.537598,40.000351 
	C561.000000,64.687561 561.000000,89.375122 561.000000,114.531342 
z"/>
<path fill="#E3E2E2" opacity="1.000000" stroke="none" 
	d="
M561.000000,191.531342 
	C548.997253,192.009338 548.997681,192.009338 548.998413,179.926346 
	C548.999634,161.288849 548.997986,142.651337 549.001953,124.013840 
	C549.003479,117.011284 549.009094,117.011208 556.081421,117.004723 
	C557.412659,117.003510 558.743958,117.003334 560.537598,117.001343 
	C561.000000,141.687561 561.000000,166.375122 561.000000,191.531342 
z"/>
<path fill="#E3E2E2" opacity="1.000000" stroke="none" 
	d="
M561.000000,268.531342 
	C548.997559,269.004669 548.997009,269.004669 548.997742,256.928040 
	C548.998840,238.289444 548.999512,219.650833 549.003174,201.012238 
	C549.004578,194.005463 549.008179,194.005264 556.081177,193.999191 
	C557.412476,193.998062 558.743835,193.999084 560.537598,193.999542 
	C561.000000,218.687561 561.000000,243.375122 561.000000,268.531342 
z"/>
<path fill="#E3E2E2" opacity="1.000000" stroke="none" 
	d="
M549.479187,561.000000 
	C548.999878,544.508545 548.995911,528.017151 549.001587,511.525696 
	C549.003845,505.012451 549.013611,505.012085 555.577454,505.001556 
	C557.076660,504.999146 558.575928,505.000397 560.537598,505.000000 
	C561.000000,523.666748 561.000000,542.333496 561.000000,561.000000 
	C557.241882,561.000000 553.600159,561.000000 549.479187,561.000000 
z"/>
<path fill="#E2E2E2" opacity="1.000000" stroke="none" 
	d="
M561.000000,36.531342 
	C549.000000,36.995972 549.000000,36.995972 549.000000,24.912022 
	C549.000000,17.253786 549.000000,9.595551 549.000000,1.468657 
	C552.963196,1.000000 556.926331,1.000000 561.000000,1.000000 
	C561.000000,12.687371 561.000000,24.375027 561.000000,36.531342 
z"/>
<path fill="#E2E2E2" opacity="1.000000" stroke="none" 
	d="
M1.000000,117.468658 
	C5.736843,117.260284 6.686419,119.864769 6.667036,125.865616 
	C6.611584,143.033020 7.159544,160.202362 7.735846,178.138947 
	C8.001606,181.602158 8.001733,184.297348 7.777666,187.194153 
	C7.702818,188.265778 7.852165,189.135818 8.001421,190.335266 
	C8.001513,191.103622 8.001695,191.542587 8.001878,191.981537 
	C5.959660,191.988419 3.917442,191.995300 1.437612,192.001099 
	C1.000000,167.312439 1.000000,142.624878 1.000000,117.468658 
z"/>
<path fill="#E2E2E2" opacity="1.000000" stroke="none" 
	d="
M1.000000,194.468658 
	C5.370951,193.596024 7.063625,194.540497 6.336192,199.845932 
	C5.480745,206.085022 6.575736,212.587372 6.774657,218.977127 
	C6.861309,221.760559 6.828054,224.547852 6.840235,227.333435 
	C6.893764,239.574860 6.789968,251.819962 7.081695,264.055664 
	C7.179502,268.157867 5.645860,269.500000 1.433417,268.999878 
	C1.000000,244.312439 1.000000,219.624878 1.000000,194.468658 
z"/>
<path fill="#E2E2E2" opacity="1.000000" stroke="none" 
	d="
M1.000000,271.468658 
	C4.723965,270.504761 6.223816,271.873016 6.124874,275.865112 
	C6.038009,279.369934 6.991868,282.900513 7.744177,287.045166 
	C8.002669,288.110443 8.003046,288.550354 8.003426,288.990234 
	C7.371372,290.138336 6.182000,291.295441 6.200373,292.433044 
	C6.298058,298.481903 6.989285,304.528717 6.930430,310.570953 
	C6.824760,321.419312 6.233941,332.262329 6.061354,343.111023 
	C6.011469,346.246735 4.728061,347.294281 1.426664,346.999878 
	C1.000000,321.979095 1.000000,296.958221 1.000000,271.468658 
z"/>
<path fill="#E2E2E2" opacity="1.000000" stroke="none" 
	d="
M1.000000,349.468658 
	C4.912645,348.445770 6.125542,350.091125 6.106758,354.033081 
	C6.070900,361.558014 6.957934,369.088104 6.903411,376.612000 
	C6.793022,391.845032 6.407439,407.079285 5.803712,422.299835 
	C5.752949,423.579620 3.206026,424.760437 1.409393,425.993591 
	C1.000000,400.645782 1.000000,375.291534 1.000000,349.468658 
z"/>
<path fill="#E2E2E2" opacity="1.000000" stroke="none" 
	d="
M1.000000,427.468658 
	C4.892577,426.454346 6.117068,428.067047 6.086123,432.018616 
	C5.913575,454.052765 5.971091,476.089081 6.039913,498.124359 
	C6.049406,501.163879 5.740650,503.505371 1.426864,502.999329 
	C1.000000,477.979095 1.000000,452.958221 1.000000,427.468658 
z"/>
<path fill="#E2E2E2" opacity="1.000000" stroke="none" 
	d="
M1.000000,40.468658 
	C7.208503,40.213764 7.380705,40.492493 6.307271,46.786495 
	C6.002866,48.571354 6.017199,50.423576 6.015403,52.245037 
	C5.996388,71.528847 5.967966,90.812820 6.040594,110.096375 
	C6.052039,113.135208 5.765944,115.505219 1.426808,114.998505 
	C1.000000,90.312439 1.000000,65.624878 1.000000,40.468658 
z"/>
<path fill="#E3E2E2" opacity="1.000000" stroke="none" 
	d="
M1.000000,505.468658 
	C4.965026,504.421326 6.128908,506.137085 6.083398,510.068573 
	C5.890515,526.731384 6.001671,543.397644 6.000864,560.531372 
	C4.345381,561.000000 2.690761,561.000000 1.000000,561.000000 
	C1.000000,542.645813 1.000000,524.291565 1.000000,505.468658 
z"/>
<path fill="#E2E2E2" opacity="1.000000" stroke="none" 
	d="
M5.500038,1.000000 
	C6.000354,11.552365 5.920710,22.105715 6.050424,32.656490 
	C6.088713,35.770870 5.177537,37.405956 1.426848,36.999191 
	C1.000000,24.999977 1.000000,12.999955 1.000000,1.000000 
	C2.366324,1.000000 3.683200,1.000000 5.500038,1.000000 
z"/>
<path fill="#FEDB78" opacity="1.000000" stroke="none" 
	d="
M153.003662,349.002502 
	C153.017166,348.557678 153.030670,348.112823 153.052551,346.938721 
	C152.970276,344.888245 152.879578,343.566986 153.257660,342.180420 
	C168.044357,342.391296 179.869659,337.131439 187.904541,325.216125 
	C191.164413,320.381897 192.685165,314.374878 195.086060,309.279480 
	C195.348602,310.300385 195.538849,310.939423 195.693726,311.586914 
	C200.501480,331.687195 217.097626,343.396790 238.876770,342.051605 
	C256.733734,340.948669 272.000580,325.811127 274.436890,307.297607 
	C275.034119,309.038574 275.450287,310.474030 275.808716,311.923737 
	C279.838806,328.224365 293.960388,340.989563 309.110809,342.016052 
	C329.710938,343.411774 344.578156,334.646118 351.584656,316.917511 
	C352.738861,313.996948 353.698853,310.999603 354.827637,308.442871 
	C356.135376,312.942871 356.729370,317.377197 358.705566,321.072296 
	C366.220245,335.123047 378.266876,342.072540 394.157410,342.711761 
	C394.154266,344.397064 394.181519,345.693726 394.208740,346.990387 
	C394.162903,347.446533 394.117065,347.902710 394.019226,349.064301 
	C393.961151,350.505615 393.955017,351.241455 393.745789,352.266785 
	C393.442474,353.737671 393.342255,354.919067 393.159149,356.494171 
	C392.673004,359.484375 392.269806,362.080841 391.637512,364.980743 
	C388.039825,378.408722 383.009613,390.914703 375.314819,402.029327 
	C369.495514,410.434998 362.510193,418.033386 356.043762,425.991089 
	C356.043762,425.991058 355.811676,426.386017 355.409668,426.647491 
	C351.297150,429.632629 347.790314,432.706268 343.834625,435.008820 
	C334.989990,440.157013 325.921692,444.921021 316.944489,449.841492 
	C316.944489,449.841492 316.455658,449.914764 315.836914,449.986847 
	C314.726166,450.139008 314.212524,450.153687 313.745361,450.308563 
	C297.610596,455.659363 281.149536,458.317902 264.138977,456.190308 
	C255.740585,455.139923 247.361816,453.932587 238.974167,452.796295 
	C238.974167,452.796295 238.574310,452.634521 238.136017,452.370453 
	C226.025742,446.216248 214.275421,440.473877 202.726685,434.351257 
	C198.975113,432.362274 195.750671,429.379028 192.285126,426.850555 
	C192.285126,426.850555 192.105179,426.396118 191.845673,425.895264 
	C187.542725,421.048584 183.035782,417.041168 179.559998,412.280823 
	C173.744720,404.316345 168.587631,395.871307 163.138504,387.333008 
	C162.768967,386.345642 162.414429,385.653748 162.003754,384.590454 
	C159.911331,377.781677 157.617081,371.411316 155.920563,364.885620 
	C154.569748,359.689667 153.948685,354.303955 153.003662,349.002502 
z"/>
<path fill="#472B52" opacity="1.000000" stroke="none" 
	d="
M243.721481,117.014374 
	C243.769760,116.561905 243.818024,116.109444 243.885773,114.865784 
	C244.651123,108.552307 244.183807,102.470161 246.415771,97.633698 
	C250.138504,89.566902 258.669006,87.444626 266.660522,85.665298 
	C277.906372,83.161385 288.106323,86.230309 297.339081,92.701988 
	C304.920624,98.016289 304.189789,106.151833 304.096222,114.001831 
	C304.092346,114.329048 304.200287,114.657593 304.256104,114.985519 
	C304.204926,115.438927 304.153778,115.892342 304.106323,117.141754 
	C304.094147,123.409935 304.084290,128.882156 304.061005,134.354309 
	C304.016266,144.875122 304.013123,144.875107 314.090393,149.316711 
	C320.854584,155.337738 328.266418,160.372742 333.774353,166.991974 
	C344.029114,179.315765 345.450684,194.406326 343.744446,209.867279 
	C332.474609,209.947281 321.691010,210.013855 310.455811,209.984497 
	C298.290802,209.926987 286.577393,209.965424 274.407410,209.940369 
	C261.982452,209.905273 250.014099,209.933655 237.577332,209.902390 
	C225.946091,209.825409 214.783234,209.808090 203.587921,209.337494 
	C203.435486,203.916550 203.315506,198.948868 203.195526,193.981201 
	C203.195526,193.981201 203.464401,193.590012 203.598419,193.008438 
	C204.046387,190.628998 204.257736,188.806076 204.689957,187.037125 
	C209.520966,167.265015 222.123703,154.316452 240.351105,146.174835 
	C241.899948,145.483017 243.822479,143.412109 243.865570,141.932205 
	C244.107162,133.634689 243.824890,125.321930 243.721481,117.014374 
M293.364014,129.218262 
	C294.411102,123.812935 292.146667,121.121178 286.794525,119.785027 
	C281.179260,118.383202 275.816193,115.982521 270.324524,114.071121 
	C265.376129,112.348824 260.402863,110.697884 254.774048,108.789482 
	C254.774048,111.679665 254.551743,113.845955 254.851868,115.937271 
	C255.053467,117.341988 255.675095,119.487640 256.654114,119.857170 
	C267.999023,124.139420 279.436005,128.181061 290.908478,132.111618 
	C291.424988,132.288559 292.513092,130.797150 293.364014,129.218262 
M281.876801,108.591614 
	C285.434753,109.701355 288.992706,110.811089 293.965118,112.361992 
	C293.014130,108.378769 293.187103,104.927818 291.557648,103.001694 
	C284.520660,94.683441 269.079010,93.740250 259.933380,100.772827 
	C267.106201,103.314316 274.129333,105.802773 281.876801,108.591614 
M279.260773,140.832733 
	C281.355164,140.832733 283.449585,140.832733 285.543976,140.832733 
	C285.603760,140.598389 285.663513,140.364029 285.723297,140.129684 
	C275.636627,136.605682 265.549957,133.081696 255.145691,129.446747 
	C255.145691,133.505310 255.145691,137.059570 255.145691,140.819122 
	C263.096436,140.819122 270.711060,140.819122 279.260773,140.832733 
z"/>
<path fill="#E2E2E2" opacity="1.000000" stroke="none" 
	d="
M344.230682,209.853821 
	C345.450684,194.406326 344.029114,179.315765 333.774353,166.991974 
	C328.266418,160.372742 320.854584,155.337738 314.352905,149.298737 
	C314.578918,148.998123 314.753967,148.986679 315.294922,148.892975 
	C316.108002,147.198364 316.555237,145.586029 317.002136,143.649109 
	C317.002014,142.891800 317.002228,142.459061 317.003052,141.763062 
	C317.003265,141.324356 317.002869,141.148865 317.002014,140.648987 
	C317.001862,139.892532 317.002136,139.460434 317.002441,139.028351 
	C317.161835,133.048080 317.246094,127.064468 317.512512,121.088974 
	C317.644562,118.127365 319.203918,116.918816 322.396088,116.937729 
	C344.051941,117.066017 365.709229,117.055016 387.365295,116.946762 
	C390.743164,116.929871 392.084564,117.895950 392.064392,121.473923 
	C391.940491,143.463028 391.946777,165.453506 392.063385,187.442703 
	C392.081787,190.915527 390.938812,192.109268 387.453186,192.062897 
	C375.627441,191.905548 363.798248,191.995605 351.970459,192.017334 
	C350.271057,192.020462 348.571930,192.167404 346.872681,192.247787 
	C346.853271,192.721359 346.833862,193.194916 346.814484,193.668472 
	C348.481873,193.776993 350.149078,193.975540 351.816711,193.979553 
	C363.644501,194.007996 375.472595,194.035889 387.300079,193.969269 
	C390.125336,193.953339 392.074890,194.245117 392.051666,197.907471 
	C391.927185,217.563843 391.977203,237.221329 391.947418,256.878387 
	C391.946686,257.359619 391.719482,257.840546 391.057129,258.486755 
	C375.087769,242.385880 359.659210,226.119858 344.230682,209.853821 
z"/>
<path fill="#E3E2E2" opacity="1.000000" stroke="none" 
	d="
M18.034382,425.990021 
	C6.586313,425.841309 8.058541,427.397797 8.021300,416.435211 
	C7.951154,395.787048 8.129139,375.137054 7.904777,354.491089 
	C7.855893,349.992828 9.314223,348.875366 13.622309,348.914307 
	C35.268089,349.109924 56.917904,349.130585 78.563057,348.903595 
	C83.134163,348.855682 84.115494,350.447906 84.080299,354.678192 
	C83.897446,376.657257 83.908958,398.639282 84.072937,420.618652 
	C84.103188,424.672333 83.014839,426.267334 78.759705,426.059998 
	C67.814430,425.526794 56.852711,425.113922 45.896564,425.088898 
	C36.773643,425.068024 27.649311,425.666077 18.034382,425.990021 
z"/>
<path fill="#E3E3E3" opacity="1.000000" stroke="none" 
	d="
M8.001904,440.012115 
	C8.002678,427.008209 8.002678,427.007050 20.566496,427.006378 
	C39.869476,427.005371 59.173965,427.135254 78.474297,426.909210 
	C82.916039,426.857178 84.126907,428.220947 84.085960,432.581909 
	C83.882843,454.212646 83.877495,475.847473 84.090897,497.478027 
	C84.134720,501.919037 82.773811,503.132690 78.415543,503.091949 
	C56.784782,502.889832 35.149948,502.882812 13.519410,503.096405 
	C9.075106,503.140289 7.858144,501.776489 7.907845,497.419342 
	C8.124206,478.451630 8.001489,459.480072 8.001904,440.012115 
z"/>
<path fill="#E3E3E3" opacity="1.000000" stroke="none" 
	d="
M8.002605,289.459900 
	C8.003046,288.550354 8.002669,288.110443 8.002894,287.340759 
	C8.007397,282.849854 7.734245,278.658752 8.178852,274.545258 
	C8.317767,273.260010 10.384870,271.172577 11.584369,271.162048 
	C34.552231,270.960022 57.522808,270.960480 80.490601,271.166595 
	C81.665703,271.177124 83.826057,273.398376 83.836571,274.605072 
	C84.036697,297.572968 84.035309,320.543579 83.827583,343.511353 
	C83.816994,344.682159 81.586304,346.834076 80.374695,346.844574 
	C57.406788,347.043335 34.436611,346.956512 11.467128,347.015808 
	C7.456497,347.026154 8.013505,344.308990 8.011303,341.860962 
	C7.995732,324.550507 8.002288,307.240021 8.002605,289.459900 
z"/>
<path fill="#E3E3E3" opacity="1.000000" stroke="none" 
	d="
M518.000000,349.003662 
	C526.491455,349.004761 534.486145,349.139709 542.472839,348.945374 
	C545.990356,348.859741 547.071228,350.143616 547.054321,353.584961 
	C546.943115,376.226868 546.937012,398.869904 547.059814,421.511688 
	C547.079102,425.077637 545.760376,426.062927 542.373535,426.044403 
	C521.896057,425.932343 501.417664,425.993011 480.939606,425.971527 
	C479.785034,425.970306 478.632721,425.682007 477.475861,425.648346 
	C473.084259,425.520508 471.843597,423.360565 471.890808,418.993256 
	C472.122864,397.518738 472.110809,376.039246 471.903595,354.564240 
	C471.861206,350.170685 473.128357,348.821198 477.544678,348.909332 
	C490.858459,349.175018 504.180908,349.004242 518.000000,349.003662 
z"/>
<path fill="#E3E3E3" opacity="1.000000" stroke="none" 
	d="
M392.759552,475.058655 
	C393.173828,473.190247 393.931061,471.324768 393.946991,469.453003 
	C394.052887,456.973358 394.143524,444.489777 393.916870,432.013336 
	C393.843933,427.998169 395.216095,426.905579 399.091888,426.933075 
	C420.723755,427.086456 442.357910,427.097290 463.989502,426.927216 
	C467.990051,426.895752 469.103333,428.206360 469.076172,432.092987 
	C468.922668,454.057648 468.912598,476.024658 469.082947,497.989044 
	C469.114014,501.998718 467.786774,503.098694 463.910370,503.071472 
	C442.278503,502.919464 420.644348,502.908783 399.012756,503.080383 
	C395.008545,503.112122 393.831421,501.799591 393.912903,497.911377 
	C394.041016,491.797943 393.603973,485.672729 393.108765,478.865631 
	C392.794037,477.138733 392.776794,476.098694 392.759552,475.058655 
z"/>
<path fill="#E3E3E3" opacity="1.000000" stroke="none" 
	d="
M524.999939,271.000671 
	C531.324341,271.002441 537.151367,271.108063 542.972229,270.963013 
	C546.013489,270.887268 547.047363,272.091095 547.037476,275.076599 
	C546.962646,297.708557 546.960022,320.341003 547.037354,342.972931 
	C547.047729,346.009491 545.909119,347.048187 542.924255,347.038147 
	C520.625122,346.963074 498.325531,346.960114 476.026428,347.037933 
	C472.988953,347.048523 471.952972,345.908661 471.962677,342.924255 
	C472.036255,320.292297 472.054779,297.659729 471.946777,275.028046 
	C471.929901,271.489777 473.625488,270.951019 476.573181,270.965332 
	C492.548462,271.042816 508.524323,271.001129 524.999939,271.000671 
z"/>
<path fill="#E2E2E2" opacity="1.000000" stroke="none" 
	d="
M31.000040,39.999138 
	C47.308918,39.999500 63.119057,40.107449 78.925804,39.923691 
	C82.836433,39.878231 84.107391,41.050900 84.076767,45.028908 
	C83.910248,66.660820 83.917419,88.295303 84.075302,109.927368 
	C84.103821,113.834518 82.950027,115.109917 78.971817,115.079865 
	C57.007042,114.913956 35.039795,114.919846 13.074863,115.075203 
	C9.168668,115.102821 7.892248,113.951065 7.923030,109.971748 
	C8.090365,88.339836 8.083856,66.705353 7.926736,45.073280 
	C7.898373,41.168362 9.034321,39.724312 13.030752,39.924229 
	C18.840559,40.214863 24.675705,39.998955 31.000040,39.999138 
z"/>
<path fill="#E3E2E2" opacity="1.000000" stroke="none" 
	d="
M8.001860,186.992554 
	C8.001733,184.297348 8.001606,181.602158 8.002183,178.458359 
	C8.002918,159.361359 8.098233,140.712082 7.925999,122.065269 
	C7.889704,118.135818 9.084208,116.894989 13.045533,116.924362 
	C35.022789,117.087357 57.002579,117.089844 78.979744,116.920258 
	C82.982681,116.889374 84.096519,118.203453 84.069046,122.090729 
	C83.916046,143.735107 83.902390,165.381927 84.083466,187.025894 
	C84.117508,191.095566 82.691162,192.094727 78.869781,192.071686 
	C55.560116,191.931030 32.249191,191.998184 8.470284,191.988770 
	C8.001695,191.542587 8.001513,191.103622 8.000668,189.958572 
	C8.000624,188.499161 8.001242,187.745865 8.001860,186.992554 
z"/>
<path fill="#E3E3E3" opacity="1.000000" stroke="none" 
	d="
M471.995117,490.981720 
	C471.995148,471.181519 472.118286,451.875946 471.901581,432.574158 
	C471.852448,428.198456 473.100891,426.867371 477.526917,426.911072 
	C498.992401,427.122864 520.461792,427.088501 541.928223,426.930420 
	C545.834167,426.901672 547.109558,428.050323 547.079468,432.031128 
	C546.913147,453.996704 546.919861,475.964783 547.076782,497.930511 
	C547.104736,501.843567 545.940613,503.109772 541.968079,503.078125 
	C520.834656,502.909637 499.699127,503.001648 478.564362,502.997070 
	C472.007812,502.995667 472.007141,502.986481 471.995575,496.470245 
	C471.992615,494.806061 471.995148,493.141907 471.995117,490.981720 
z"/>
<path fill="#E2E2E2" opacity="1.000000" stroke="none" 
	d="
M447.000000,115.000916 
	C430.691437,115.000351 414.881622,114.892250 399.075195,115.075478 
	C395.166138,115.120789 393.891968,113.949638 393.922729,109.971291 
	C394.089783,88.339813 394.083435,66.705780 393.926819,45.074146 
	C393.898560,41.171062 395.043884,39.888954 399.026855,39.919239 
	C420.991150,40.086227 442.958008,40.079987 464.922485,39.925079 
	C468.827148,39.897541 470.106628,41.046841 470.075958,45.027607 
	C469.909332,66.659081 469.916809,88.293121 470.074554,109.924744 
	C470.103058,113.830521 468.963287,115.272362 464.968781,115.073341 
	C459.159058,114.783867 453.324158,115.000237 447.000000,115.000916 
z"/>
<path fill="#E3E3E3" opacity="1.000000" stroke="none" 
	d="
M83.996780,234.000000 
	C83.996452,244.484512 83.884407,254.470947 84.056976,264.452484 
	C84.117195,267.935730 82.913696,269.075958 79.444229,269.058075 
	C57.146080,268.942963 34.846756,268.942017 12.548611,269.057465 
	C9.070304,269.075470 7.926272,267.916260 7.944612,264.445984 
	C8.060688,242.480667 8.061005,220.514130 7.944558,198.548828 
	C7.926136,195.073944 9.079177,193.922043 12.552561,193.940048 
	C34.850708,194.055634 57.150032,194.056305 79.448181,193.941788 
	C82.925026,193.923950 84.101700,195.081055 84.054451,198.555130 
	C83.896057,210.201523 83.995941,221.851440 83.996780,234.000000 
z"/>
<path fill="#E3E2E2" opacity="1.000000" stroke="none" 
	d="
M409.004883,192.004272 
	C404.842651,191.999832 401.138214,192.305603 397.538055,191.826965 
	C396.233612,191.653534 394.169891,189.612793 394.159180,188.408951 
	C393.958099,165.765320 393.959930,143.118896 394.169678,120.475388 
	C394.180481,119.310081 396.422424,117.169342 397.640076,117.158821 
	C420.616791,116.960342 443.596222,116.962082 466.572754,117.172920 
	C467.721588,117.183464 469.829956,119.456017 469.841461,120.690704 
	C470.041565,142.168732 470.080902,163.649857 469.920563,185.128555 
	C469.873413,191.441956 468.935699,191.999802 462.454437,192.001541 
	C444.804260,192.006287 427.154083,192.003860 409.004883,192.004272 
z"/>
<path fill="#E3E2E2" opacity="1.000000" stroke="none" 
	d="
M163.153503,387.628540 
	C168.587631,395.871307 173.744720,404.316345 179.559998,412.280823 
	C183.035782,417.041168 187.542725,421.048584 191.717438,425.687256 
	C184.026993,425.983948 176.200577,425.828003 168.385391,426.056183 
	C164.189682,426.178680 162.802612,424.514160 162.938385,420.460510 
	C163.161072,413.811188 162.997009,407.148926 162.996124,400.492126 
	C162.995911,398.960480 162.996078,397.428864 162.996078,395.897217 
	C162.487015,395.862823 161.977951,395.828430 161.468887,395.794037 
	C161.313110,397.119507 161.030838,398.444183 161.022568,399.770569 
	C160.977020,407.092773 160.883545,414.418030 161.048706,421.736755 
	C161.123032,425.030182 159.854507,426.209625 156.650742,426.018921 
	C149.535049,425.595428 142.407425,425.017914 135.288895,425.071045 
	C120.843536,425.178802 106.396919,425.548859 91.959732,426.061707 
	C87.606178,426.216370 85.827705,425.222198 85.885994,420.349701 
	C86.148758,398.385376 86.124382,376.414886 85.901047,354.449707 
	C85.854797,349.901337 87.406662,348.877960 91.656166,348.918976 
	C111.791061,349.113312 131.928879,349.006378 152.534653,349.004639 
	C153.948685,354.303955 154.569748,359.689667 155.920563,364.885620 
	C157.617081,371.411316 159.911331,377.781677 161.736633,384.883545 
	C161.387207,387.757935 161.248764,389.967804 161.110321,392.177673 
	C161.621216,392.192902 162.132111,392.208130 162.643005,392.223358 
	C162.813171,390.691742 162.983337,389.160156 163.153503,387.628540 
M92.539391,386.850342 
	C94.845146,387.294403 97.379311,388.586243 99.417503,388.037170 
	C108.696014,385.537415 117.847633,382.559845 127.017876,379.668457 
	C130.607071,378.536743 132.933411,376.161469 131.719162,372.210480 
	C130.536438,368.362030 127.395454,367.349854 123.720818,368.484863 
	C114.375366,371.371460 105.031319,374.272217 95.760780,377.387665 
	C91.016113,378.982178 90.282211,381.131958 92.539391,386.850342 
z"/>
<path fill="#E3E3E3" opacity="1.000000" stroke="none" 
	d="
M393.999298,261.972473 
	C393.999176,241.141708 394.125366,220.309570 393.899231,199.481262 
	C393.850220,194.967148 395.332794,193.870361 399.630951,193.908768 
	C421.293213,194.102402 442.958801,194.085861 464.621552,193.921188 
	C468.682770,193.890305 470.200897,194.995468 470.068207,199.243927 
	C469.553192,215.731430 469.236938,232.227127 469.063995,248.722076 
	C469.011993,253.682175 469.549072,258.661041 470.031860,263.610260 
	C470.427490,267.665741 469.035431,269.124268 464.774445,269.087891 
	C443.778809,268.908691 422.780670,269.027740 401.022827,268.901855 
	C398.174591,266.498932 396.086945,264.235718 393.999298,261.972473 
z"/>
<path fill="#E2E2E2" opacity="1.000000" stroke="none" 
	d="
M317.003418,74.023010 
	C317.004272,64.195084 317.119873,54.365105 316.944611,44.540321 
	C316.882111,41.038521 318.117645,39.924671 321.575562,39.942646 
	C343.562866,40.056938 365.551453,40.063408 387.538635,39.938290 
	C391.124603,39.917885 392.090515,41.275494 392.058899,44.645401 
	C391.927673,58.636475 392.004486,72.629494 392.004120,86.621796 
	C392.003906,94.717560 391.922638,102.814491 392.042572,110.908463 
	C392.086700,113.886711 391.037018,115.049629 387.984497,115.038643 
	C365.663727,114.958298 343.342285,114.940033 321.021759,115.047493 
	C317.465179,115.064621 316.943756,113.339165 316.969818,110.402504 
	C317.062958,99.909164 317.004822,89.414467 317.002716,78.054848 
	C317.002167,76.133942 317.002808,75.078476 317.003418,74.023010 
z"/>
<path fill="#E3E2E2" opacity="1.000000" stroke="none" 
	d="
M547.000488,108.856750 
	C547.632141,113.569481 546.121399,115.147446 541.562866,115.099312 
	C520.095520,114.872643 498.623962,114.927826 477.155121,115.065903 
	C473.377869,115.090195 471.878113,114.163429 471.912994,110.053169 
	C472.097839,88.252129 472.052551,66.448463 471.948456,44.646362 
	C471.932434,41.286041 472.869263,39.919704 476.457947,39.940155 
	C498.426239,40.065346 520.396179,40.080513 542.364197,39.927734 
	C546.269165,39.900578 547.075134,41.463634 547.055786,44.967640 
	C546.939087,66.103844 546.999390,87.241028 547.000488,108.856750 
z"/>
<path fill="#E2E2E2" opacity="1.000000" stroke="none" 
	d="
M237.999756,96.998917 
	C237.998245,101.991577 237.927704,106.486046 238.022079,110.977051 
	C238.076370,113.560982 237.386642,115.028809 234.416473,115.020912 
	C211.785202,114.960762 189.153198,115.041847 166.523636,114.836296 
	C165.342010,114.825554 163.169968,112.616707 163.159210,111.415962 
	C162.956436,88.786346 162.956848,66.153938 163.162994,43.524368 
	C163.173767,42.342785 165.382370,40.170864 166.582977,40.160110 
	C189.212601,39.957432 211.844620,40.048153 234.475845,39.977722 
	C238.447250,39.965359 237.995514,42.587181 237.996277,45.079292 
	C238.001480,62.219288 237.999512,79.359283 237.999756,96.998917 
z"/>
<path fill="#E3E2E2" opacity="1.000000" stroke="none" 
	d="
M132.000000,192.003632 
	C118.020950,192.002823 104.540039,191.877731 91.063995,192.078598 
	C87.139381,192.137100 85.890717,190.929352 85.921303,186.964355 
	C86.088181,165.332596 86.086319,143.698257 85.927940,122.066376 
	C85.899208,118.142509 87.078308,116.898186 91.041077,116.928284 
	C112.672859,117.092575 134.307205,117.087517 155.939056,116.926094 
	C159.865021,116.896797 161.108414,118.081711 161.078369,122.041489 
	C160.914200,143.673279 160.917480,165.307602 161.077682,186.939468 
	C161.106750,190.864517 159.932983,192.213638 155.960770,192.079239 
	C148.148605,191.814941 140.321136,192.002792 132.000000,192.003632 
z"/>
<path fill="#E2E2E2" opacity="1.000000" stroke="none" 
	d="
M93.106842,114.998764 
	C86.012367,114.953613 86.002312,114.953613 86.001083,108.524475 
	C85.997086,87.554779 86.109909,66.584061 85.912231,45.616230 
	C85.871620,41.308689 86.992271,39.857040 91.486809,39.903080 
	C112.953522,40.122986 134.424286,40.077583 155.892227,39.927559 
	C159.743118,39.900650 161.116470,40.955406 161.083755,44.992233 
	C160.908371,66.626221 160.889465,88.263420 161.093246,109.896904 
	C161.134827,114.312073 159.387375,115.095139 155.501495,115.067535 
	C134.865707,114.920929 114.228340,114.998688 93.106842,114.998764 
z"/>
<path fill="#E3E3E3" opacity="1.000000" stroke="none" 
	d="
M547.000000,219.000000 
	C547.000366,234.310623 546.886414,249.122742 547.077942,263.930878 
	C547.128601,267.847443 545.941467,269.109039 541.969360,269.078522 
	C520.337097,268.912323 498.702362,268.918396 477.069977,269.075317 
	C473.164001,269.103607 471.887604,267.952911 471.918549,263.972260 
	C472.086945,242.340042 472.080933,220.705261 471.924042,199.072891 
	C471.895660,195.165115 473.048981,193.890152 477.027344,193.920853 
	C498.659576,194.087799 520.294373,194.081619 541.926697,193.924301 
	C545.836487,193.895874 547.247131,195.043823 547.073059,199.033264 
	C546.790344,205.510895 546.998840,212.009979 547.000000,219.000000 
z"/>
<path fill="#E3E2E2" opacity="1.000000" stroke="none" 
	d="
M472.000000,163.000000 
	C471.999908,149.020844 472.124268,135.539841 471.922058,122.063721 
	C471.863129,118.136124 473.076904,116.892586 477.038544,116.922859 
	C498.670471,117.088203 520.304993,117.085632 541.937012,116.926262 
	C545.862122,116.897339 547.106384,118.080734 547.076355,122.041206 
	C546.912048,143.673157 546.915405,165.307648 547.075806,186.939651 
	C547.104980,190.864822 545.921814,192.110413 541.961121,192.080215 
	C520.329163,191.915329 498.694702,191.918213 477.062653,192.076736 
	C473.141479,192.105453 471.785828,190.936676 471.921143,186.961197 
	C472.187134,179.148941 471.999786,171.321289 472.000000,163.000000 
z"/>
<path fill="#E3E3E3" opacity="1.000000" stroke="none" 
	d="
M161.009216,482.964325 
	C161.005127,488.296143 160.893082,493.630920 161.038788,498.958649 
	C161.121811,501.994110 159.927063,503.047668 156.928482,503.037476 
	C134.601746,502.961456 112.274467,502.957275 89.947769,503.039429 
	C86.822044,503.050934 85.957130,501.738922 85.965858,498.836548 
	C86.033524,476.343140 86.045944,453.849243 85.953011,431.356018 
	C85.939796,428.157043 86.964958,426.942383 90.257797,426.957062 
	C112.417740,427.055847 134.578552,427.056244 156.738495,426.957489 
	C160.030502,426.942810 161.078812,428.152039 161.047714,431.354126 
	C160.940964,442.349121 161.051697,453.346222 161.046936,465.147919 
	C159.569000,467.931366 158.145752,469.925995 156.674103,471.884277 
	C152.363235,477.620605 153.800873,481.311127 161.009216,482.964325 
z"/>
<path fill="#E3E2E2" opacity="1.000000" stroke="none" 
	d="
M147.345551,269.191711 
	C129.038696,269.127838 110.730011,268.901276 92.426254,269.108826 
	C87.554741,269.164062 85.794044,268.100525 85.871841,262.825226 
	C86.183487,241.691055 86.086235,220.548981 85.926849,199.411438 
	C85.896713,195.413925 86.897682,193.872726 91.191795,193.911270 
	C112.661697,194.104080 134.135681,194.128891 155.604797,193.896255 
	C160.222946,193.846237 161.136948,195.528809 161.082535,199.707932 
	C160.876709,215.517685 160.979309,231.331802 161.029648,247.144089 
	C161.035355,248.931976 161.441071,250.718582 161.841354,253.115021 
	C157.129456,258.880066 152.237503,264.035889 147.345551,269.191711 
z"/>
<path fill="#F7BB51" opacity="1.000000" stroke="none" 
	d="
M147.176178,269.450348 
	C152.237503,264.035889 157.129456,258.880066 162.156067,253.406128 
	C162.558929,253.033813 162.773575,252.896118 163.308411,252.313324 
	C176.994888,237.898056 190.307632,223.844406 203.620392,209.790756 
	C214.783234,209.808090 225.946091,209.825409 237.523056,210.263947 
	C226.629654,234.492798 215.259384,258.270935 204.056274,282.127625 
	C201.046021,288.537872 198.544525,295.187042 195.586273,301.892151 
	C195.130600,302.345581 194.898117,302.633423 194.240448,302.941528 
	C168.432831,302.606079 143.050400,302.250366 117.842316,301.598511 
	C127.018112,291.541412 136.019562,281.780426 145.020996,272.019440 
	C145.682938,271.249298 146.344879,270.479126 147.176178,269.450348 
z"/>
<path fill="#DC6F6F" opacity="1.000000" stroke="none" 
	d="
M393.729736,261.834351 
	C396.086945,264.235718 398.174591,266.498932 400.543701,268.924011 
	C401.286652,269.658478 401.748199,270.231110 402.614807,271.248810 
	C412.381195,281.785706 421.742523,291.877563 430.626953,301.978821 
	C405.018402,302.019562 379.886780,302.050903 354.510193,302.064697 
	C353.943665,301.980072 353.618683,301.942688 353.216309,301.565979 
	C352.756866,300.106506 352.468872,298.969391 351.971527,297.932678 
	C339.768585,272.496155 327.505981,247.088120 315.363617,221.622742 
	C313.593781,217.910934 312.378998,213.934448 310.907410,210.080429 
	C321.691010,210.013855 332.474609,209.947281 343.744446,209.867279 
	C359.659210,226.119858 375.087769,242.385880 390.811890,258.818573 
	C391.891724,259.888916 392.675964,260.792603 393.729736,261.834351 
z"/>
<path fill="#E3E2E2" opacity="1.000000" stroke="none" 
	d="
M316.962219,450.324280 
	C325.921692,444.921021 334.989990,440.157013 343.834625,435.008820 
	C347.790314,432.706268 351.297150,429.632629 355.337341,426.864807 
	C366.276062,426.883270 376.886353,427.059326 387.493530,426.944122 
	C390.990143,426.906158 392.099823,428.138794 392.059082,431.569611 
	C391.897614,445.163696 391.959351,458.760437 391.630035,472.631775 
	C385.197815,465.281555 379.073914,457.655762 372.805481,449.708313 
	C369.864380,446.217072 366.820953,446.427094 364.037231,449.170563 
	C361.325653,451.842926 362.096191,455.125580 365.948975,458.712585 
	C371.037750,465.625977 375.992798,472.248444 381.013947,478.820404 
	C384.672333,483.608704 386.457092,483.870514 391.866241,480.641266 
	C391.910431,486.633087 391.845398,492.628510 392.043274,498.615265 
	C392.147949,501.781250 391.105103,503.063477 387.778992,503.048370 
	C365.638794,502.947815 343.497528,502.929626 321.357666,503.060028 
	C317.656342,503.081818 316.930969,501.497467 316.951813,498.250854 
	C317.053192,482.436829 316.986877,466.621735 316.962219,450.324280 
z"/>
<path fill="#E2E2E2" opacity="1.000000" stroke="none" 
	d="
M243.323822,117.022461 
	C243.824890,125.321930 244.107162,133.634689 243.865570,141.932205 
	C243.822479,143.412109 241.899948,145.483017 240.351105,146.174835 
	C222.123703,154.316452 209.520966,167.265015 204.689957,187.037125 
	C204.257736,188.806076 204.046387,190.628998 203.563828,192.773621 
	C201.124802,192.746277 198.858063,192.077454 196.583359,192.049240 
	C186.923874,191.929428 177.260178,191.891998 167.602036,192.058304 
	C164.179337,192.117249 162.918411,191.031311 162.938110,187.494110 
	C163.060532,165.507706 163.059723,143.519974 162.941147,121.533546 
	C162.922241,118.025436 164.132263,116.929596 167.579544,116.947342 
	C189.566025,117.060509 211.553757,117.067390 233.540100,116.941055 
	C237.133408,116.920403 238.157501,118.285591 238.051117,121.654282 
	C237.861954,127.644783 237.978516,133.645660 238.012009,139.641953 
	C238.020462,141.155563 238.198425,142.668213 238.298492,144.181320 
	C238.867081,144.160553 239.435684,144.139786 240.004272,144.119019 
	C240.004272,139.615585 240.003586,135.112152 240.004501,130.608719 
	C240.005173,127.277351 239.739792,123.913040 240.143036,120.630997 
	C240.302094,119.336411 241.954010,118.225243 243.323822,117.022461 
z"/>
<path fill="#E3E3E3" opacity="1.000000" stroke="none" 
	d="
M191.791809,426.897400 
	C195.750671,429.379028 198.975113,432.362274 202.726685,434.351257 
	C214.275421,440.473877 226.025742,446.216248 237.920685,452.358521 
	C237.763916,467.723816 237.248657,482.835632 237.096710,497.951111 
	C237.057114,501.889130 235.889282,503.106689 231.948227,503.075958 
	C210.972946,502.912445 189.993896,502.855347 169.020416,503.110596 
	C164.156311,503.169800 162.318283,501.710358 162.954697,496.917511 
	C163.215393,494.954224 162.999756,492.927673 163.345856,490.414246 
	C165.216675,488.671539 167.008209,487.661438 168.219589,486.177704 
	C172.224152,481.272644 176.008957,476.188568 179.898819,471.189301 
	C182.023392,468.458801 184.310593,465.846283 186.305878,463.025909 
	C188.679672,459.670380 187.994751,457.145050 183.878693,455.548126 
	C184.779404,451.392914 183.298248,448.774414 180.041229,446.695312 
	C179.717926,444.984100 179.351608,443.613983 178.985291,442.243866 
	C178.418320,442.377838 177.851349,442.511841 177.284378,442.645813 
	C177.189575,444.094574 177.094788,445.543335 176.772736,447.147827 
	C176.053436,447.544830 175.561386,447.786133 174.699951,447.971313 
	C170.554535,448.276764 166.778488,448.638397 163.002441,449.000000 
	C163.003738,442.853516 162.815765,436.696259 163.164764,430.569580 
	C163.235214,429.332764 165.300461,427.242188 166.511917,427.193817 
	C174.764236,426.864044 183.034210,426.975311 191.791809,426.897400 
z"/>
<path fill="#E2E2E2" opacity="1.000000" stroke="none" 
	d="
M316.623688,73.896378 
	C317.002808,75.078476 317.002167,76.133942 317.002594,77.584969 
	C316.337219,79.469765 315.126556,80.947273 315.094177,82.450165 
	C314.908508,91.070732 315.006287,99.697319 315.000366,108.321869 
	C314.995758,114.994347 314.990845,114.994827 308.129700,114.997162 
	C307.134583,114.997505 306.139435,114.990547 304.700195,114.986237 
	C304.200287,114.657593 304.092346,114.329048 304.096222,114.001831 
	C304.189789,106.151833 304.920624,98.016289 297.339081,92.701988 
	C288.106323,86.230309 277.906372,83.161385 266.660522,85.665298 
	C258.669006,87.444626 250.138504,89.566902 246.415771,97.633698 
	C244.183807,102.470161 244.651123,108.552307 243.813324,114.530258 
	C240.892563,115.277489 239.959152,113.951599 239.967514,111.190186 
	C240.035477,88.729561 240.030472,66.268570 239.973602,43.807877 
	C239.966583,41.040512 241.019440,39.966587 243.795685,39.973587 
	C266.256378,40.030235 288.717407,40.043720 311.177948,39.962463 
	C314.404968,39.950790 315.066071,41.492710 315.033783,44.278870 
	C314.939362,52.430214 314.933167,60.584438 315.058807,68.734962 
	C315.084747,70.418915 315.830139,72.091766 316.623688,73.896378 
z"/>
<path fill="#E3E2E2" opacity="1.000000" stroke="none" 
	d="
M431.103851,301.969421 
	C421.742523,291.877563 412.381195,281.785706 402.855286,271.389221 
	C423.515167,271.056732 444.340149,271.098694 465.163544,270.935516 
	C468.837463,270.906708 470.120178,272.038116 470.066071,275.780243 
	C469.881714,288.535431 470.115845,301.296478 469.950043,314.052185 
	C469.827545,323.475525 469.142090,332.893005 469.091949,342.315155 
	C469.071503,346.158722 467.640900,347.080719 464.076538,347.062042 
	C441.086456,346.941437 418.095428,346.998596 394.656738,346.993927 
	C394.181519,345.693726 394.154266,344.397064 394.571228,342.636658 
	C415.907440,340.631470 430.875122,326.283417 432.244904,306.337891 
	C432.342651,304.914581 431.506042,303.427063 431.103851,301.969421 
z"/>
<path fill="#E3E3E3" opacity="1.000000" stroke="none" 
	d="
M238.983109,453.284729 
	C247.361816,453.932587 255.740585,455.139923 264.138977,456.190308 
	C281.149536,458.317902 297.610596,455.659363 313.745361,450.308563 
	C314.212524,450.153687 314.726166,450.139008 315.602631,450.065643 
	C315.658905,462.498383 315.387054,474.926239 314.975037,487.349487 
	C314.807220,492.408722 316.143738,499.162109 313.464386,502.005798 
	C311.051361,504.566803 304.085693,502.916992 299.126221,502.980286 
	C292.812439,503.060852 286.496826,502.996399 279.647827,502.529724 
	C279.086914,496.761536 278.995087,491.457245 279.054565,486.154694 
	C279.100006,482.101135 277.668915,479.092346 273.269165,479.117889 
	C268.978607,479.142761 267.293121,482.086456 267.267059,486.118530 
	C267.230682,491.752441 267.198761,497.386322 267.164917,503.020233 
	C259.354675,503.013092 251.539749,502.843231 243.736252,503.068878 
	C239.956604,503.178162 238.901199,501.764374 238.938644,498.141479 
	C239.091522,483.353455 238.996048,468.562836 238.983109,453.284729 
z"/>
<path fill="#E3E2E2" opacity="1.000000" stroke="none" 
	d="
M144.700256,271.751984 
	C136.019562,281.780426 127.018112,291.541412 117.549431,301.799438 
	C116.823753,303.535004 116.243683,304.803253 116.354836,306.007690 
	C118.201836,326.021606 132.702011,340.402039 152.788895,342.245758 
	C152.879578,343.566986 152.970276,344.888245 153.022339,346.606171 
	C132.513443,347.002197 112.041969,346.885071 91.573822,347.093964 
	C87.204536,347.138580 85.862396,345.905029 85.905792,341.472748 
	C86.117645,319.839569 86.112671,298.202087 85.907990,276.568787 
	C85.866600,272.193817 87.105247,270.837372 91.534477,270.904602 
	C107.673981,271.149536 123.819489,270.988800 139.962646,271.022247 
	C141.435257,271.025299 142.907227,271.323425 144.700256,271.751984 
z"/>
<path fill="#E3E3E3" opacity="1.000000" stroke="none" 
	d="
M454.995117,425.965454 
	C437.309357,425.970428 419.623627,425.975372 401.371704,425.631195 
	C398.539429,424.521088 396.273376,423.760162 394.007324,422.999207 
	C394.003387,412.980225 393.999451,402.961212 393.997528,392.044434 
	C393.998901,389.429474 393.998230,387.712311 393.996857,385.535034 
	C393.999878,381.383301 394.003601,377.691650 394.376373,374.054871 
	C397.108154,374.485199 399.483734,374.795044 401.830200,375.253784 
	C404.427551,375.761597 406.994934,376.421265 409.581909,376.984497 
	C411.136597,377.322998 412.703857,377.603821 414.579895,378.049316 
	C426.263367,381.785309 437.632324,385.382507 449.076904,389.321869 
	C451.575714,390.523560 455.758728,392.613617 456.150726,392.052948 
	C460.219757,386.233490 464.472229,388.022156 469.000000,391.000000 
	C469.001312,393.370575 469.002594,395.741119 468.631653,398.567139 
	C463.406891,400.508057 463.176453,404.933228 461.988708,408.785797 
	C461.486023,410.416351 461.154938,412.433502 460.014709,413.472595 
	C456.251709,416.901855 454.930298,421.104919 454.995117,425.965454 
z"/>
<path fill="#E2E2E2" opacity="1.000000" stroke="none" 
	d="
M469.001343,390.531342 
	C464.472229,388.022156 460.219757,386.233490 456.150726,392.052948 
	C455.758728,392.613617 451.575714,390.523560 449.385712,389.156281 
	C451.059906,386.514984 453.674011,384.330627 453.584534,382.263336 
	C453.507812,380.490448 450.622681,378.070618 448.485535,377.290985 
	C440.109589,374.235260 431.484222,371.869812 423.062897,368.928894 
	C419.131531,367.555969 415.989075,368.003479 412.939545,370.831604 
	C412.540710,369.985474 412.084839,369.145081 412.331604,368.781281 
	C415.594788,363.970398 412.741364,361.024109 409.454315,357.836426 
	C406.704620,355.169830 404.464325,351.977997 401.998474,349.018738 
	C422.488525,349.014160 442.979858,349.131165 463.467560,348.908905 
	C467.902588,348.860779 469.198578,350.199158 469.096466,354.582092 
	C468.821106,366.403290 469.002533,378.235077 469.001343,390.531342 
z"/>
<path fill="#E2E2E2" opacity="1.000000" stroke="none" 
	d="
M203.587921,209.337479 
	C190.307632,223.844406 176.994888,237.898056 163.387817,252.134399 
	C163.062836,234.496811 163.110321,216.675781 162.936813,198.856903 
	C162.901337,195.211731 163.984879,193.866684 167.754959,193.929901 
	C179.243622,194.122528 190.737656,193.995163 202.712555,193.986786 
	C203.315506,198.948868 203.435486,203.916550 203.587921,209.337479 
z"/>
<path fill="#E2E2E2" opacity="1.000000" stroke="none" 
	d="
M393.997559,385.995117 
	C393.998230,387.712311 393.998901,389.429474 393.998596,391.576141 
	C393.333618,393.498932 392.129700,394.979980 392.095398,396.487579 
	C391.906189,404.806396 391.873810,413.134613 392.061798,421.453430 
	C392.140961,424.954834 390.892029,426.106873 387.433289,426.050201 
	C377.281860,425.883820 367.125916,425.991821 356.507751,425.991730 
	C362.510193,418.033386 369.495514,410.434998 375.314819,402.029327 
	C383.009613,390.914703 388.039825,378.408722 391.679138,365.481598 
	C391.968384,370.969879 391.843628,376.267578 392.096100,381.547211 
	C392.168304,383.056702 393.333527,384.513916 393.997559,385.995117 
z"/>
<path fill="#F6BC58" opacity="1.000000" stroke="none" 
	d="
M175.069336,448.027466 
	C175.561386,447.786133 176.053436,447.544830 177.146729,447.180176 
	C178.498047,447.050049 179.248138,447.043243 179.998230,447.036407 
	C183.298248,448.774414 184.779404,451.392914 183.611465,455.735321 
	C176.473114,465.063721 169.645889,473.800018 162.818665,482.536316 
	C162.413940,482.620758 162.009216,482.705200 161.306854,482.876984 
	C153.800873,481.311127 152.363235,477.620605 156.674103,471.884277 
	C158.145752,469.925995 159.569000,467.931366 161.092407,465.634460 
	C162.044846,464.420105 162.919250,463.524628 164.170914,462.132202 
	C168.055206,457.099274 171.562271,452.563354 175.069336,448.027466 
z"/>
<path fill="#F6BC58" opacity="1.000000" stroke="none" 
	d="
M267.199371,503.346802 
	C267.198761,497.386322 267.230682,491.752441 267.267059,486.118530 
	C267.293121,482.086456 268.978607,479.142761 273.269165,479.117889 
	C277.668915,479.092346 279.100006,482.101135 279.054565,486.154694 
	C278.995087,491.457245 279.086914,496.761536 279.196716,502.527161 
	C279.242889,503.440063 279.205994,503.890930 279.234344,504.676086 
	C279.200623,507.804779 279.018127,510.599274 279.022949,513.393433 
	C279.029572,517.231445 277.595612,519.884338 273.455353,520.078064 
	C269.179962,520.278137 267.744568,517.498413 267.531891,513.771118 
	C267.381989,511.143402 267.339966,508.509491 267.204407,505.430542 
	C267.183990,504.546295 267.208893,504.109802 267.199371,503.346802 
z"/>
<path fill="#F7BB51" opacity="1.000000" stroke="none" 
	d="
M391.910461,480.397614 
	C386.457092,483.870514 384.672333,483.608704 381.013947,478.820404 
	C375.992798,472.248444 371.037750,465.625977 365.997162,458.306335 
	C366.248779,453.187408 369.096161,451.141937 372.950012,450.029999 
	C379.073914,457.655762 385.197815,465.281555 391.597107,473.120331 
	C392.041138,473.798706 392.209778,474.264069 392.568970,474.894043 
	C392.776794,476.098694 392.794037,477.138733 392.806946,478.569214 
	C392.519989,479.357758 392.237335,479.755859 391.910461,480.397614 
z"/>
<path fill="#E3E3E3" opacity="1.000000" stroke="none" 
	d="
M401.636353,349.016479 
	C404.464325,351.977997 406.704620,355.169830 409.454315,357.836426 
	C412.741364,361.024109 415.594788,363.970398 412.331604,368.781281 
	C412.084839,369.145081 412.540710,369.985474 412.891174,371.229431 
	C413.496765,373.873230 413.881104,375.891907 414.265442,377.910583 
	C412.703857,377.603821 411.136597,377.322998 409.581909,376.984497 
	C406.994934,376.421265 404.427551,375.761597 401.830200,375.253784 
	C399.483734,374.795044 397.108154,374.485199 394.373962,373.591705 
	C394.006012,369.049957 394.009491,365.026184 394.416626,361.001221 
	C396.463989,360.056091 398.107727,359.112244 399.751465,358.168365 
	C398.846619,356.893738 398.050873,355.519135 397.002960,354.375610 
	C396.140106,353.433990 394.978271,352.766357 393.948914,351.977325 
	C393.955017,351.241455 393.961151,350.505615 394.035034,349.408325 
	C396.493286,349.035980 398.883759,349.025085 401.636353,349.016479 
z"/>
<path fill="#E2E2E2" opacity="1.000000" stroke="none" 
	d="
M317.002441,142.026306 
	C317.002228,142.459061 317.002014,142.891800 316.758789,143.886627 
	C315.986847,145.957550 315.457947,147.466385 314.929016,148.975220 
	C314.753967,148.986679 314.578918,148.998123 314.141418,149.027573 
	C304.013123,144.875107 304.016266,144.875122 304.061005,134.354309 
	C304.084290,128.882156 304.094147,123.409935 304.189758,117.476036 
	C314.998260,116.974800 314.895538,116.976334 315.057037,127.781700 
	C315.111877,131.450272 315.828796,135.108948 316.622803,138.900253 
	C317.002136,139.460434 317.001862,139.892532 316.862244,140.755341 
	C316.816071,141.466156 316.909241,141.746231 317.002441,142.026306 
z"/>
<path fill="#E2E2E2" opacity="1.000000" stroke="none" 
	d="
M455.459229,425.974304 
	C454.930298,421.104919 456.251709,416.901855 460.014709,413.472595 
	C461.154938,412.433502 461.486023,410.416351 461.988708,408.785797 
	C463.176453,404.933228 463.406891,400.508057 468.630859,399.011292 
	C469.002075,406.266052 468.871033,413.535400 469.054871,420.796783 
	C469.152008,424.633881 467.725647,426.294556 463.847504,426.023895 
	C461.217987,425.840424 458.565521,425.985199 455.459229,425.974304 
z"/>
<path fill="#E3E2E2" opacity="1.000000" stroke="none" 
	d="
M162.867554,483.014282 
	C169.645889,473.800018 176.473114,465.063721 183.567566,456.140259 
	C187.994751,457.145050 188.679672,459.670380 186.305878,463.025909 
	C184.310593,465.846283 182.023392,468.458801 179.898819,471.189301 
	C176.008957,476.188568 172.224152,481.272644 168.219589,486.177704 
	C167.008209,487.661438 165.216675,488.671539 163.347565,489.949280 
	C162.974991,487.830750 162.945709,485.661499 162.867554,483.014282 
z"/>
<path fill="#E3E2E2" opacity="1.000000" stroke="none" 
	d="
M174.699951,447.971313 
	C171.562271,452.563354 168.055206,457.099274 164.284393,461.840942 
	C163.680313,458.002838 163.339981,453.958984 163.001053,449.457581 
	C166.778488,448.638397 170.554535,448.276764 174.699951,447.971313 
z"/>
<path fill="#E2E2E2" opacity="1.000000" stroke="none" 
	d="
M394.030029,423.392578 
	C396.273376,423.760162 398.539429,424.521088 400.903076,425.626282 
	C398.655548,425.335022 395.366791,427.700592 394.030029,423.392578 
z"/>
<path fill="#D9D8D8" opacity="1.000000" stroke="none" 
	d="
M7.777666,187.194153 
	C8.001242,187.745865 8.000624,188.499161 8.000759,189.629166 
	C7.852165,189.135818 7.702818,188.265778 7.777666,187.194153 
z"/>
<path fill="#E4B04E" opacity="1.000000" stroke="none" 
	d="
M353.290253,301.935059 
	C353.618683,301.942688 353.943665,301.980072 354.548828,302.487183 
	C354.804504,304.630676 354.776550,306.334229 354.748596,308.037750 
	C353.698853,310.999603 352.738861,313.996948 351.584656,316.917511 
	C344.578156,334.646118 329.710938,343.411774 309.110809,342.016052 
	C293.960388,340.989563 279.838806,328.224365 275.808716,311.923737 
	C275.450287,310.474030 275.034119,309.038574 274.373413,306.888550 
	C274.065399,304.792938 274.028656,303.405243 274.097107,302.027313 
	C274.202301,302.037048 274.413605,302.035400 274.842590,302.023804 
	C301.277802,301.986481 327.284027,301.960754 353.290253,301.935059 
z"/>
<path fill="#CB6568" opacity="1.000000" stroke="none" 
	d="
M273.991913,302.017578 
	C274.028656,303.405243 274.065399,304.792938 274.165588,306.589661 
	C272.000580,325.811127 256.733734,340.948669 238.876770,342.051605 
	C217.097626,343.396790 200.501480,331.687195 195.693726,311.586914 
	C195.538849,310.939423 195.348602,310.300385 195.101501,308.857300 
	C194.907303,306.345215 194.786484,304.633240 194.665649,302.921265 
	C194.898117,302.633423 195.130600,302.345581 195.859299,302.168121 
	C222.234329,302.191528 248.113113,302.104553 273.991913,302.017578 
z"/>
<path fill="#E4B04E" opacity="1.000000" stroke="none" 
	d="
M194.240463,302.941528 
	C194.786484,304.633240 194.907303,306.345215 195.012695,308.479370 
	C192.685165,314.374878 191.164413,320.381897 187.904541,325.216125 
	C179.869659,337.131439 168.044357,342.391296 153.257660,342.180420 
	C132.702011,340.402039 118.201836,326.021606 116.354836,306.007690 
	C116.243683,304.803253 116.823753,303.535004 117.375076,302.095520 
	C143.050400,302.250366 168.432831,302.606079 194.240463,302.941528 
z"/>
<path fill="#CB6568" opacity="1.000000" stroke="none" 
	d="
M354.827637,308.442871 
	C354.776550,306.334229 354.804504,304.630676 354.793793,302.504700 
	C379.886780,302.050903 405.018402,302.019562 430.626953,301.978821 
	C431.506042,303.427063 432.342651,304.914581 432.244904,306.337891 
	C430.875122,326.283417 415.907440,340.631470 394.601593,342.247986 
	C378.266876,342.072540 366.220245,335.123047 358.705566,321.072296 
	C356.729370,317.377197 356.135376,312.942871 354.827637,308.442871 
z"/>
<path fill="#D9D8D8" opacity="1.000000" stroke="none" 
	d="
M394.012970,361.002441 
	C394.009491,365.026184 394.006012,369.049957 394.004944,373.536865 
	C394.003601,377.691650 393.999878,381.383301 393.996857,385.535034 
	C393.333527,384.513916 392.168304,383.056702 392.096100,381.547211 
	C391.843628,376.267578 391.968384,370.969879 391.908203,365.178192 
	C392.269806,362.080841 392.673004,359.484375 393.359985,356.779846 
	C393.766815,358.115387 393.889893,359.558899 394.012970,361.002441 
z"/>
<path fill="#E2E2E2" opacity="1.000000" stroke="none" 
	d="
M394.416626,361.001221 
	C393.889893,359.558899 393.766815,358.115387 393.442902,356.386169 
	C393.342255,354.919067 393.442474,353.737671 393.745789,352.266785 
	C394.978271,352.766357 396.140106,353.433990 397.002960,354.375610 
	C398.050873,355.519135 398.846619,356.893738 399.751465,358.168365 
	C398.107727,359.112244 396.463989,360.056091 394.416626,361.001221 
z"/>
<path fill="#D9D8D8" opacity="1.000000" stroke="none" 
	d="
M163.138504,387.333008 
	C162.983337,389.160156 162.813171,390.691742 162.643005,392.223358 
	C162.132111,392.208130 161.621216,392.192902 161.110321,392.177673 
	C161.248764,389.967804 161.387207,387.757935 161.792786,385.254974 
	C162.414429,385.653748 162.768967,386.345642 163.138504,387.333008 
z"/>
<path fill="#DC6F6F" opacity="1.000000" stroke="none" 
	d="
M274.097107,302.027313 
	C248.113113,302.104553 222.234329,302.191528 196.082504,302.002502 
	C198.544525,295.187042 201.046021,288.537872 204.056274,282.127625 
	C215.259384,258.270935 226.629654,234.492798 237.991455,210.323608 
	C250.014099,209.933655 261.982452,209.905273 274.416626,210.407745 
	C274.884796,232.365189 274.932892,253.791901 274.867676,275.218262 
	C274.840454,284.157684 274.572235,293.096375 274.413605,302.035400 
	C274.413605,302.035400 274.202301,302.037048 274.097107,302.027313 
z"/>
<path fill="#F9BD52" opacity="1.000000" stroke="none" 
	d="
M274.842590,302.023804 
	C274.572235,293.096375 274.840454,284.157684 274.867676,275.218262 
	C274.932892,253.791901 274.884796,232.365189 274.873199,210.471252 
	C286.577393,209.965424 298.290802,209.926987 310.455811,209.984497 
	C312.378998,213.934448 313.593781,217.910934 315.363617,221.622742 
	C327.505981,247.088120 339.768585,272.496155 351.971527,297.932678 
	C352.468872,298.969391 352.756866,300.106506 353.216309,301.565948 
	C327.284027,301.960754 301.277802,301.986481 274.842590,302.023804 
z"/>
<path fill="#F7CD61" opacity="1.000000" stroke="none" 
	d="
M293.349487,129.650543 
	C292.513092,130.797150 291.424988,132.288559 290.908478,132.111618 
	C279.436005,128.181061 267.999023,124.139420 256.654114,119.857170 
	C255.675095,119.487640 255.053467,117.341988 254.851868,115.937271 
	C254.551743,113.845955 254.774048,111.679665 254.774048,108.789482 
	C260.402863,110.697884 265.376129,112.348824 270.324524,114.071121 
	C275.816193,115.982521 281.179260,118.383202 286.794525,119.785027 
	C292.146667,121.121178 294.411102,123.812935 293.349487,129.650543 
z"/>
<path fill="#F7CD61" opacity="1.000000" stroke="none" 
	d="
M281.514648,108.441422 
	C274.129333,105.802773 267.106201,103.314316 259.933380,100.772827 
	C269.079010,93.740250 284.520660,94.683441 291.557648,103.001694 
	C293.187103,104.927818 293.014130,108.378769 293.965118,112.361992 
	C288.992706,110.811089 285.434753,109.701355 281.514648,108.441422 
z"/>
<path fill="#F7CD61" opacity="1.000000" stroke="none" 
	d="
M278.793213,140.825928 
	C270.711060,140.819122 263.096436,140.819122 255.145691,140.819122 
	C255.145691,137.059570 255.145691,133.505310 255.145691,129.446747 
	C265.549957,133.081696 275.636627,136.605682 285.723297,140.129684 
	C285.663513,140.364029 285.603760,140.598389 285.543976,140.832733 
	C283.449585,140.832733 281.355164,140.832733 278.793213,140.825928 
z"/>
<path fill="#D9D8D8" opacity="1.000000" stroke="none" 
	d="
M315.294922,148.892975 
	C315.457947,147.466385 315.986847,145.957550 316.759094,144.211197 
	C316.555237,145.586029 316.108002,147.198364 315.294922,148.892975 
z"/>
<path fill="#D9D8D8" opacity="1.000000" stroke="none" 
	d="
M317.003052,141.763062 
	C316.909241,141.746231 316.816071,141.466156 316.862671,141.079712 
	C317.002869,141.148865 317.003265,141.324356 317.003052,141.763062 
z"/>
<path fill="#F7BB51" opacity="1.000000" stroke="none" 
	d="
M92.284340,386.561401 
	C90.282211,381.131958 91.016113,378.982178 95.760780,377.387665 
	C105.031319,374.272217 114.375366,371.371460 123.720818,368.484863 
	C127.395454,367.349854 130.536438,368.362030 131.719162,372.210480 
	C132.933411,376.161469 130.607071,378.536743 127.017876,379.668457 
	C117.847633,382.559845 108.696014,385.537415 99.417503,388.037170 
	C97.379311,388.586243 94.845146,387.294403 92.284340,386.561401 
z"/>
<path fill="#F6BC58" opacity="1.000000" stroke="none" 
	d="
M372.805481,449.708313 
	C369.096161,451.141937 366.248779,453.187408 365.891785,457.993805 
	C362.096191,455.125580 361.325653,451.842926 364.037231,449.170563 
	C366.820953,446.427094 369.864380,446.217072 372.805481,449.708313 
z"/>
<path fill="#E3E2E2" opacity="1.000000" stroke="none" 
	d="
M180.041229,446.695312 
	C179.248138,447.043243 178.498047,447.050049 177.373962,447.024475 
	C177.094788,445.543335 177.189575,444.094574 177.284378,442.645813 
	C177.851349,442.511841 178.418320,442.377838 178.985291,442.243866 
	C179.351608,443.613983 179.717926,444.984100 180.041229,446.695312 
z"/>
<path fill="#F7BB51" opacity="1.000000" stroke="none" 
	d="
M414.579895,378.049316 
	C413.881104,375.891907 413.496765,373.873230 413.160767,371.456726 
	C415.989075,368.003479 419.131531,367.555969 423.062897,368.928894 
	C431.484222,371.869812 440.109589,374.235260 448.485535,377.290985 
	C450.622681,378.070618 453.507812,380.490448 453.584534,382.263336 
	C453.674011,384.330627 451.059906,386.514984 449.310120,388.814117 
	C437.632324,385.382507 426.263367,381.785309 414.579895,378.049316 
z"/>
</svg>